<svg width="264" height="77" viewBox="0 0 264 77" fill="none" xmlns="http://www.w3.org/2000/svg">
<path d="M-294.109 61.5012C-263.465 53.9867 -204.684 68.7373 -166.518 63.4493C-128.352 58.1614 -69.0133 48.4205 -34.7476 57.3265C-0.481689 66.2325 81.1433 63.4494 120.981 69.2939C160.818 75.1385 221.271 85.1578 286.46 62.6144C351.648 40.0711 449.71 68.459 491.497 64.5626C533.285 60.6662 531.892 73.7469 571.73 70.1288C611.567 66.5108 666.727 57.3265 694.028 55.3783C721.329 53.4301 792.925 75.9735 827.191 72.3554C861.457 68.7373 955.618 77.365 1030 61.2229V32L-410 32V64.5626C-410 64.5626 -325.032 69.0157 -294.109 61.5012Z" fill="#CEE1F2" fill-opacity="0.2"/>
<path d="M-293.109 59.5012C-262.465 51.9867 -203.684 66.7373 -165.518 61.4493C-127.352 56.1614 -68.0133 46.4205 -33.7476 55.3265C0.518311 64.2325 82.1433 61.4494 121.981 67.2939C161.818 73.1385 222.271 83.1578 287.46 60.6144C352.648 38.0711 450.71 66.459 492.497 62.5626C534.285 58.6662 532.892 71.7469 572.73 68.1288C612.567 64.5108 667.727 55.3265 695.028 53.3783C722.329 51.4301 793.925 73.9735 828.191 70.3554C862.457 66.7373 956.618 75.365 1031 59.2229V30L-409 30V62.5626C-409 62.5626 -324.032 67.0157 -293.109 59.5012Z" fill="#FDFEFF"/>
<circle cx="16" cy="21" r="1" fill="#FDFEFF"/>
<circle cx="58" cy="15" r="1" fill="#FDFEFF"/>
<circle cx="98" cy="14" r="1" fill="#FDFEFF"/>
<circle cx="171" cy="11" r="1" fill="#FDFEFF"/>
<circle cx="187" cy="20" r="1" fill="#FDFEFF"/>
<circle cx="244" cy="27" r="1" fill="#FDFEFF"/>
<circle cx="257" cy="5" r="1" fill="#FDFEFF"/>
<circle cx="226" cy="17" r="1" fill="#FDFEFF"/>
<circle cx="4" cy="29" r="1" fill="#FDFEFF"/>
<circle cx="13.5" cy="0.5" r="0.5" fill="#FDFEFF"/>
<circle cx="41.5" cy="14.5" r="0.5" fill="#FDFEFF"/>
<circle cx="32.5" cy="25.5" r="0.5" fill="#FDFEFF"/>
<circle cx="65.5" cy="4.5" r="0.5" fill="#FDFEFF"/>
<circle cx="78.5" cy="19.5" r="0.5" fill="#FDFEFF"/>
<circle cx="117.5" cy="11.5" r="0.5" fill="#FDFEFF"/>
<circle cx="151.5" cy="21.5" r="0.5" fill="#FDFEFF"/>
<circle cx="204.5" cy="21.5" r="0.5" fill="#FDFEFF"/>
<circle cx="129.5" cy="15.5" r="0.5" fill="#FDFEFF"/>
<circle cx="217.5" cy="11.5" r="0.5" fill="#FDFEFF"/>
<circle cx="255.5" cy="28.5" r="0.5" fill="#FDFEFF"/>
<circle cx="244.5" cy="5.5" r="0.5" fill="#FDFEFF"/>
<path d="M1309.11 32.1344C1278.46 39.6489 1219.68 24.8983 1181.52 30.1863C1143.35 35.4742 1084.01 45.2151 1049.75 36.3091C1015.48 27.4031 933.857 30.1863 894.019 24.3417C854.182 18.4971 793.729 8.47781 728.54 31.0212C663.352 53.5646 565.29 25.1767 523.503 29.073C481.715 32.9694 483.108 19.8887 443.27 23.5068C403.433 27.1248 348.273 36.3092 320.972 38.2573C293.671 40.2055 222.075 17.6621 187.809 21.2802C153.543 24.8983 59.3819 16.2706 -15 32.4128V61.6356H1425V29.073C1425 29.073 1340.03 24.62 1309.11 32.1344Z" fill="#FDFEFF"/>
</svg>
