<svg width="208" height="208" viewBox="0 0 208 208" fill="none" xmlns="http://www.w3.org/2000/svg">
<g filter="url(#filter0_d)">
<path d="M104 200C159.228 200 204 155.228 204 100C204 44.7715 159.228 0 104 0C48.7715 0 4 44.7715 4 100C4 155.228 48.7715 200 104 200Z" fill="#CEE1F2"/>
<path d="M97.5306 111.146C97.5306 111.146 101.662 115.199 110.235 113.718C118.809 112.237 118.107 110.21 118.107 110.21C118.107 110.21 124.265 116.991 125.746 126.111C127.227 135.23 125.746 132.814 125.746 132.814H87.8658C87.8658 132.814 90.7496 114.887 97.5306 111.146Z" fill="white"/>
<path d="M97.5306 111.146C97.5306 111.146 101.662 115.199 110.235 113.718C118.809 112.237 118.107 110.21 118.107 110.21C118.107 110.21 124.265 116.991 125.746 126.111C127.227 135.23 125.746 132.814 125.746 132.814H87.8658C87.8658 132.814 90.7496 114.887 97.5306 111.146Z" stroke="#56414F"/>
<path d="M107.897 115.978C107.897 115.978 125.98 122.447 125.98 131.411C125.98 140.452 128.24 126.812 124.577 120.265C120.835 113.796 118.107 111.379 118.107 111.379L107.897 115.978Z" fill="#CEE1F2"/>
<path d="M107.897 114.575C118.788 114.575 127.616 104.7 127.616 92.5175C127.616 80.3354 118.788 70.4598 107.897 70.4598C97.0062 70.4598 88.1775 80.3354 88.1775 92.5175C88.1775 104.7 97.0062 114.575 107.897 114.575Z" fill="white"/>
<path d="M107.897 114.575C118.788 114.575 127.616 104.7 127.616 92.5175C127.616 80.3354 118.788 70.4598 107.897 70.4598C97.0062 70.4598 88.1775 80.3354 88.1775 92.5175C88.1775 104.7 97.0062 114.575 107.897 114.575Z" stroke="#56414F"/>
<path d="M107.897 115.978C96.2837 115.978 86.7748 105.456 86.7748 92.5175C86.7748 79.5791 96.2837 69.0569 107.897 69.0569C119.511 69.0569 129.019 79.5791 129.019 92.5175C129.019 105.456 119.588 115.978 107.897 115.978ZM107.897 71.8628C97.8426 71.8628 89.5807 81.1379 89.5807 92.5175C89.5807 103.897 97.7646 113.172 107.897 113.172C117.952 113.172 126.214 103.897 126.214 92.5175C126.214 81.1379 118.03 71.8628 107.897 71.8628Z" fill="#56414F"/>
<path d="M107.897 115.978C96.2837 115.978 86.7748 105.456 86.7748 92.5175C86.7748 79.5791 96.2837 69.0569 107.897 69.0569C119.511 69.0569 129.019 79.5791 129.019 92.5175C129.019 105.456 119.588 115.978 107.897 115.978ZM107.897 71.8628C97.8426 71.8628 89.5807 81.1379 89.5807 92.5175C89.5807 103.897 97.7646 113.172 107.897 113.172C117.952 113.172 126.214 103.897 126.214 92.5175C126.214 81.1379 118.03 71.8628 107.897 71.8628Z" stroke="#56414F"/>
<path d="M116.169 71.1072C113.879 70.6884 111.434 70.4598 108.832 70.4598L116.169 71.1072ZM116.169 71.1072C116.378 71.1454 116.585 71.1851 116.791 71.2263M116.169 71.1072L116.782 71.1613C116.782 71.1613 116.785 71.1834 116.791 71.2263M116.791 71.2263C141.287 76.1354 147.455 102.962 134.709 102.962C121.049 102.962 116.995 72.814 116.791 71.2263Z" fill="#CEE1F2"/>
<path d="M116.169 71.1072C113.879 70.6884 111.434 70.4598 108.832 70.4598L116.169 71.1072ZM116.169 71.1072C116.378 71.1454 116.585 71.1851 116.791 71.2263M116.169 71.1072L116.782 71.1613C116.782 71.1613 116.785 71.1834 116.791 71.2263M116.791 71.2263C141.287 76.1354 147.455 102.962 134.709 102.962C121.049 102.962 116.995 72.814 116.791 71.2263Z" stroke="#56414F"/>
<path d="M116.627 71.1614C114.21 70.6937 111.638 70.382 108.832 70.382L116.627 71.1614Z" fill="#CEE1F2"/>
<path d="M116.627 71.1614C114.21 70.6937 111.638 70.382 108.832 70.382L116.627 71.1614Z" stroke="#56414F"/>
<path d="M89.1243 98.9451L93.3997 97.9734C93.3997 97.9734 102.441 95.869 106.26 87.2174C110.079 78.5658 108.287 71.551 108.287 71.551L99.713 71.7848C99.713 71.7848 96.6732 87.5292 93.3997 93.6087C91.4362 97.2552 89.9774 98.5182 89.1243 98.9451ZM89.1243 98.9451L88.2555 99.1426C88.2555 99.1426 88.5551 99.23 89.1243 98.9451Z" fill="#CEE1F2"/>
<path d="M89.1243 98.9451L93.3997 97.9734C93.3997 97.9734 102.441 95.869 106.26 87.2174C110.079 78.5658 108.287 71.551 108.287 71.551L99.713 71.7848C99.713 71.7848 96.6732 87.5292 93.3997 93.6087C91.4362 97.2552 89.9774 98.5182 89.1243 98.9451ZM89.1243 98.9451L88.2555 99.1426C88.2555 99.1426 88.5551 99.23 89.1243 98.9451Z" stroke="#56414F"/>
<path d="M134.709 104.365C120.913 104.365 116.315 78.0202 115.457 72.3304C113.353 72.0186 111.171 71.7848 108.832 71.7848V68.9789C130.578 68.9789 142.581 84.7232 142.581 95.5572C142.581 98.0513 141.88 100.234 140.633 101.715C139.23 103.507 137.203 104.365 134.709 104.365ZM118.419 72.9539C119.9 82.4629 124.966 101.481 134.709 101.481C136.346 101.481 137.593 100.935 138.45 99.9219C139.308 98.9087 139.775 97.3499 139.775 95.5572C139.775 88.8542 133.228 76.7731 118.419 72.9539Z" fill="#56414F"/>
<path d="M134.709 104.365C120.913 104.365 116.315 78.0202 115.457 72.3304C113.353 72.0186 111.171 71.7848 108.832 71.7848V68.9789C130.578 68.9789 142.581 84.7232 142.581 95.5572C142.581 98.0513 141.88 100.234 140.633 101.715C139.23 103.507 137.203 104.365 134.709 104.365ZM118.419 72.9539C119.9 82.4629 124.966 101.481 134.709 101.481C136.346 101.481 137.593 100.935 138.45 99.9219C139.308 98.9087 139.775 97.3499 139.775 95.5572C139.775 88.8542 133.228 76.7731 118.419 72.9539Z" stroke="#56414F"/>
<path d="M100.09 71.1964C102.514 70.721 105.116 70.4598 107.897 70.4598L100.09 71.1964ZM100.09 71.1964L99.6351 71.2393C99.6351 71.2393 99.6331 71.2563 99.6292 71.2897M100.09 71.1964C99.9354 71.2266 99.7819 71.2577 99.6292 71.2897M99.6292 71.2897C99.4631 72.694 95.7243 102.962 82.0201 102.962C69.328 102.962 75.39 76.3614 99.6292 71.2897Z" fill="#CEE1F2"/>
<path d="M100.09 71.1964C102.514 70.721 105.116 70.4598 107.897 70.4598L100.09 71.1964ZM100.09 71.1964L99.6351 71.2393C99.6351 71.2393 99.6331 71.2563 99.6292 71.2897M100.09 71.1964C99.9354 71.2266 99.7819 71.2577 99.6292 71.2897M99.6292 71.2897C99.4631 72.694 95.7243 102.962 82.0201 102.962C69.328 102.962 75.39 76.3614 99.6292 71.2897Z" stroke="#56414F"/>
<path d="M99.4014 71.1614C101.818 70.6937 104.39 70.382 107.196 70.382L99.4014 71.1614Z" fill="#CEE1F2"/>
<path d="M99.4014 71.1614C101.818 70.6937 104.39 70.382 107.196 70.382L99.4014 71.1614Z" stroke="#56414F"/>
<path d="M99.3235 71.1614C99.3235 71.1614 99.2456 71.9408 99.0118 73.2658C82.1762 80.3586 77.3438 98.5191 84.8263 102.26C83.7351 102.728 82.6439 102.962 81.3968 102.962C68.6143 102.962 74.7717 76.0717 99.3235 71.1614Z" fill="#CEE1F2"/>
<path d="M82.0981 104.364C79.604 104.364 77.5775 103.507 76.1745 101.792C74.9274 100.233 74.226 98.1289 74.226 95.6347C74.226 84.8007 86.229 69.0564 107.975 69.0564V71.8623C105.481 71.8623 103.142 72.0962 101.038 72.4859C100.181 78.0977 95.8939 104.364 82.0981 104.364ZM98.0763 73.1094C83.5011 77.0065 77.0319 89.0096 77.0319 95.6347C77.0319 97.5053 77.4995 98.9863 78.3568 99.9995C79.2142 101.013 80.4613 101.558 82.0981 101.558C91.8409 101.558 96.6733 82.5404 98.0763 73.1094Z" fill="#56414F"/>
<path d="M82.0981 104.364C79.604 104.364 77.5775 103.507 76.1745 101.792C74.9274 100.233 74.226 98.1289 74.226 95.6347C74.226 84.8007 86.229 69.0564 107.975 69.0564V71.8623C105.481 71.8623 103.142 72.0962 101.038 72.4859C100.181 78.0977 95.8939 104.364 82.0981 104.364ZM98.0763 73.1094C83.5011 77.0065 77.0319 89.0096 77.0319 95.6347C77.0319 97.5053 77.4995 98.9863 78.3568 99.9995C79.2142 101.013 80.4613 101.558 82.0981 101.558C91.8409 101.558 96.6733 82.5404 98.0763 73.1094Z" stroke="#56414F"/>
<path d="M90.5158 99.7662C90.0551 99.7662 89.7221 99.7236 89.5482 99.7014C89.4867 99.6935 89.445 99.6882 89.4247 99.6882L89.8144 96.8823C89.8286 96.8823 89.856 96.8841 89.8963 96.8867C90.7421 96.941 97.2185 97.3574 103.766 89.3219C108.509 83.4679 107.404 71.9778 107.283 70.7257C107.277 70.6608 107.273 70.6234 107.273 70.6157L110.001 70.304C110.079 70.8496 111.638 84.0998 105.87 91.1925C99.5572 98.9088 93.01 99.7662 90.5158 99.7662Z" fill="#56414F"/>
<path d="M90.5158 99.7662C90.0551 99.7662 89.7221 99.7236 89.5482 99.7014C89.4867 99.6935 89.445 99.6882 89.4247 99.6882L89.8144 96.8823C89.8286 96.8823 89.856 96.8841 89.8963 96.8867C90.7421 96.941 97.2185 97.3574 103.766 89.3219C108.509 83.4679 107.404 71.9778 107.283 70.7257C107.277 70.6608 107.273 70.6234 107.273 70.6157L110.001 70.304C110.079 70.8496 111.638 84.0998 105.87 91.1925C99.5572 98.9088 93.01 99.7662 90.5158 99.7662Z" stroke="#56414F"/>
<path d="M108.988 107.249H108.755C108.287 107.093 103.922 105.612 103.922 102.494C103.922 99.922 106.65 98.9088 108.599 98.6749H109.222C111.171 98.9088 113.899 99.922 113.899 102.494C113.821 105.612 109.456 107.093 108.988 107.249ZM108.832 101.481C107.819 101.637 106.65 102.026 106.65 102.494C106.65 103.118 107.741 103.819 108.832 104.287C109.924 103.819 111.015 103.04 111.015 102.494C111.015 102.026 109.846 101.637 108.832 101.481Z" fill="#56414F"/>
<path d="M108.988 107.249H108.755C108.287 107.093 103.922 105.612 103.922 102.494C103.922 99.922 106.65 98.9088 108.599 98.6749H109.222C111.171 98.9088 113.899 99.922 113.899 102.494C113.821 105.612 109.456 107.093 108.988 107.249ZM108.832 101.481C107.819 101.637 106.65 102.026 106.65 102.494C106.65 103.118 107.741 103.819 108.832 104.287C109.924 103.819 111.015 103.04 111.015 102.494C111.015 102.026 109.846 101.637 108.832 101.481Z" stroke="#56414F"/>
<path d="M118.497 89.6337C118.497 91.1146 117.328 92.2837 115.847 92.2837C114.366 92.2837 113.197 91.1146 113.197 89.6337C113.197 88.1528 114.366 86.9836 115.847 86.9836C117.25 86.9836 118.497 88.1528 118.497 89.6337Z" fill="#56414F"/>
<path d="M118.497 89.6337C118.497 91.1146 117.328 92.2837 115.847 92.2837C114.366 92.2837 113.197 91.1146 113.197 89.6337C113.197 88.1528 114.366 86.9836 115.847 86.9836C117.25 86.9836 118.497 88.1528 118.497 89.6337Z" stroke="#56414F"/>
<path d="M103.766 89.6337C103.766 91.1146 102.597 92.2837 101.116 92.2837C99.6352 92.2837 98.4661 91.1146 98.4661 89.6337C98.4661 88.1528 99.6352 86.9836 101.116 86.9836C102.519 86.9836 103.766 88.1528 103.766 89.6337Z" fill="#56414F"/>
<path d="M103.766 89.6337C103.766 91.1146 102.597 92.2837 101.116 92.2837C99.6352 92.2837 98.4661 91.1146 98.4661 89.6337C98.4661 88.1528 99.6352 86.9836 101.116 86.9836C102.519 86.9836 103.766 88.1528 103.766 89.6337Z" stroke="#56414F"/>
<path d="M108.832 110.21C108.053 110.21 107.43 109.587 107.43 108.885V105.69C107.43 104.91 108.053 104.365 108.832 104.365C109.612 104.365 110.235 104.988 110.235 105.69V108.885C110.235 109.587 109.612 110.21 108.832 110.21Z" fill="#56414F"/>
<path d="M108.832 110.21C108.053 110.21 107.43 109.587 107.43 108.885V105.69C107.43 104.91 108.053 104.365 108.832 104.365C109.612 104.365 110.235 104.988 110.235 105.69V108.885C110.235 109.587 109.612 110.21 108.832 110.21Z" stroke="#56414F"/>
<path d="M56.689 132.736L61.7552 164.069H152.948L159.183 132.736H56.689Z" fill="#CEE1F2"/>
<path d="M56.689 132.736L61.7552 164.069H152.948L159.183 132.736H56.689Z" stroke="#56414F"/>
<path d="M152.948 165.316H61.7552C61.1317 165.316 60.586 164.848 60.5081 164.224L55.3639 132.892C55.286 132.502 55.4419 132.112 55.6757 131.878C55.9095 131.567 56.2993 131.411 56.689 131.411H159.261C159.651 131.411 160.04 131.567 160.274 131.878C160.508 132.19 160.586 132.58 160.508 132.969L154.273 164.302C154.117 164.926 153.571 165.316 152.948 165.316ZM62.9244 162.743H151.934L157.702 133.983H58.2478L62.9244 162.743Z" fill="#56414F"/>
<path d="M152.948 165.316H61.7552C61.1317 165.316 60.586 164.848 60.5081 164.224L55.3639 132.892C55.286 132.502 55.4419 132.112 55.6757 131.878C55.9095 131.567 56.2993 131.411 56.689 131.411H159.261C159.651 131.411 160.04 131.567 160.274 131.878C160.508 132.19 160.586 132.58 160.508 132.969L154.273 164.302C154.117 164.926 153.571 165.316 152.948 165.316ZM62.9244 162.743H151.934L157.702 133.983H58.2478L62.9244 162.743Z" stroke="#56414F"/>
<path d="M101.038 6.85889H114.99L120.991 27.7474H96.8293L101.038 6.85889Z" fill="#CEE1F2"/>
<path d="M101.038 6.85889H114.99L120.991 27.7474H96.8293L101.038 6.85889Z" stroke="#56414F"/>
<path d="M121.069 29.1504H96.9072C96.5174 29.1504 96.1277 28.9945 95.8159 28.6048C95.5821 28.293 95.4262 27.8253 95.5042 27.4356L99.7131 6.5471C99.8689 5.92356 100.415 5.45593 101.116 5.45593H115.068C115.691 5.45593 116.237 5.84563 116.393 6.46917L122.394 27.1239C122.472 27.2798 122.55 27.5136 122.55 27.7474C122.472 28.5268 121.849 29.1504 121.069 29.1504ZM98.5439 26.3445H119.121L113.899 8.26184H102.129L98.5439 26.3445Z" fill="#56414F"/>
<path d="M121.069 29.1504H96.9072C96.5174 29.1504 96.1277 28.9945 95.8159 28.6048C95.5821 28.293 95.4262 27.8253 95.5042 27.4356L99.7131 6.5471C99.8689 5.92356 100.415 5.45593 101.116 5.45593H115.068C115.691 5.45593 116.237 5.84563 116.393 6.46917L122.394 27.1239C122.472 27.2798 122.55 27.5136 122.55 27.7474C122.472 28.5268 121.849 29.1504 121.069 29.1504ZM98.5439 26.3445H119.121L113.899 8.26184H102.129L98.5439 26.3445Z" stroke="#56414F"/>
<path d="M94.491 46.3757C94.413 46.3757 94.3351 46.3757 94.1792 46.3757C93.3998 46.2198 92.9321 45.5183 93.088 44.7388L95.4262 33.1255C95.5821 32.346 96.2836 31.8784 97.063 32.0343C97.8424 32.1901 98.3101 32.8916 98.1542 33.671L95.816 45.2845C95.738 45.9859 95.1925 46.3757 94.491 46.3757Z" fill="white"/>
<path d="M84.1246 64.9257C84.0467 64.9257 83.9687 64.9257 83.8129 64.9257C83.0334 64.7698 82.5658 64.0683 82.7216 63.2889L85.0599 51.6755C85.2158 50.8961 85.9174 50.4284 86.6968 50.5843C87.4762 50.7402 87.9438 51.4417 87.7879 52.2211L85.4496 63.8345C85.3717 64.458 84.8261 64.9257 84.1246 64.9257Z" fill="white"/>
<path d="M96.4395 65.0038C96.3615 65.0038 96.3615 65.0038 96.2835 65.0038C95.5041 64.9258 94.9585 64.2243 95.0365 63.4449L96.2056 51.6757C96.2835 50.8962 96.985 50.3506 97.7644 50.4285C98.5439 50.5065 99.0894 51.208 99.0115 51.9874L97.8424 63.7567C97.7644 64.4582 97.2189 65.0038 96.4395 65.0038Z" fill="white"/>
<path d="M121.225 65.0038C120.524 65.0038 119.9 64.4582 119.822 63.7567L118.653 51.9874C118.575 51.208 119.121 50.5065 119.9 50.4285C120.68 50.3506 121.381 50.8962 121.459 51.6757L122.628 63.4449C122.706 64.2243 122.161 64.9258 121.381 65.0038C121.303 65.0038 121.225 65.0038 121.225 65.0038Z" fill="white"/>
<path d="M133.54 64.9257C132.917 64.9257 132.293 64.458 132.137 63.8345L129.799 52.2211C129.643 51.4417 130.111 50.7402 130.89 50.5843C131.67 50.4284 132.371 50.8961 132.527 51.6755L134.865 63.2889C135.021 64.0683 134.553 64.7698 133.774 64.9257C133.696 64.9257 133.618 64.9257 133.54 64.9257Z" fill="white"/>
<path d="M122.862 46.3757C122.238 46.3757 121.615 45.908 121.459 45.2845L119.121 33.671C118.965 32.8916 119.432 32.1901 120.212 32.0343C120.991 31.8784 121.693 32.346 121.849 33.1255L124.187 44.7388C124.343 45.5183 123.875 46.2198 123.096 46.3757C123.096 46.3757 122.94 46.3757 122.862 46.3757Z" fill="white"/>
<path d="M108.91 46.3755C108.131 46.3755 107.507 45.7519 107.507 44.9725V33.3591C107.507 32.5797 108.131 31.9562 108.91 31.9562C109.69 31.9562 110.313 32.5797 110.313 33.3591V44.9725C110.313 45.7519 109.69 46.3755 108.91 46.3755Z" fill="white"/>
<path d="M108.832 64.9259C108.053 64.9259 107.43 64.3024 107.43 63.523V51.9095C107.43 51.1301 108.053 50.5066 108.832 50.5066C109.612 50.5066 110.235 51.1301 110.235 51.9095V63.523C110.235 64.3024 109.612 64.9259 108.832 64.9259Z" fill="white"/>
<path d="M90.2041 131.411H87.632C87.632 119.62 95.5468 112.007 96.3112 111.272C96.3351 111.249 96.352 111.233 96.3615 111.224L98.0762 113.172C98.0762 113.172 90.2041 120.421 90.2041 131.411Z" fill="#56414F"/>
<path d="M90.2041 131.411H87.632C87.632 119.62 95.5468 112.007 96.3112 111.272C96.3351 111.249 96.352 111.233 96.3615 111.224L98.0762 113.172C98.0762 113.172 90.2041 120.421 90.2041 131.411Z" stroke="#56414F"/>
<path d="M128.552 131.411H125.98C125.98 120.421 118.185 113.172 118.03 113.094L119.744 111.146C120.212 111.457 128.552 119.252 128.552 131.411Z" fill="#56414F"/>
<path d="M128.552 131.411H125.98C125.98 120.421 118.185 113.172 118.03 113.094L119.744 111.146C120.212 111.457 128.552 119.252 128.552 131.411Z" stroke="#56414F"/>
<path d="M97.2969 133.437C96.5954 133.437 95.9718 132.892 95.9718 132.112C95.9718 131.956 95.9718 129.072 98.2321 126.111C98.6998 125.565 99.4793 125.409 100.025 125.877C100.57 126.344 100.726 127.124 100.259 127.669C98.5439 129.852 98.5439 132.034 98.5439 132.112V132.112C98.6219 132.814 98.0763 133.437 97.2969 133.437Z" fill="#56414F"/>
<path d="M97.2969 133.437C96.5954 133.437 95.9718 132.892 95.9718 132.112C95.9718 131.956 95.9718 129.072 98.2321 126.111C98.6998 125.565 99.4793 125.409 100.025 125.877C100.57 126.344 100.726 127.124 100.259 127.669C98.5439 129.852 98.5439 132.034 98.5439 132.112V132.112C98.6219 132.814 98.0763 133.437 97.2969 133.437Z" stroke="#56414F"/>
<path d="M120.056 133.437C120.757 133.437 121.381 132.892 121.381 132.112C121.381 131.956 121.381 129.072 119.121 126.111C118.653 125.565 117.873 125.409 117.328 125.877C116.782 126.344 116.626 127.124 117.094 127.669C118.809 129.852 118.809 132.034 118.809 132.112V132.112C118.731 132.814 119.354 133.437 120.056 133.437Z" fill="#56414F"/>
<path d="M120.056 133.437C120.757 133.437 121.381 132.892 121.381 132.112C121.381 131.956 121.381 129.072 119.121 126.111C118.653 125.565 117.873 125.409 117.328 125.877C116.782 126.344 116.626 127.124 117.094 127.669C118.809 129.852 118.809 132.034 118.809 132.112V132.112C118.731 132.814 119.354 133.437 120.056 133.437Z" stroke="#56414F"/>
<path d="M72.9009 122.057C68.77 122.057 65.3406 118.706 65.3406 114.497C65.3406 110.366 68.6921 106.937 72.9009 106.937C77.0319 106.937 80.4614 110.288 80.4614 114.497C80.3835 118.706 77.0319 122.057 72.9009 122.057ZM72.9009 108.963C69.7832 108.963 67.2891 111.457 67.2891 114.575C67.2891 117.693 69.7832 120.187 72.9009 120.187C76.0186 120.187 78.5128 117.693 78.5128 114.575C78.5128 111.457 75.9407 108.963 72.9009 108.963Z" fill="#56414F"/>
<path d="M72.9009 122.057C68.77 122.057 65.3406 118.706 65.3406 114.497C65.3406 110.366 68.6921 106.937 72.9009 106.937C77.0319 106.937 80.4614 110.288 80.4614 114.497C80.3835 118.706 77.0319 122.057 72.9009 122.057ZM72.9009 108.963C69.7832 108.963 67.2891 111.457 67.2891 114.575C67.2891 117.693 69.7832 120.187 72.9009 120.187C76.0186 120.187 78.5128 117.693 78.5128 114.575C78.5128 111.457 75.9407 108.963 72.9009 108.963Z" stroke="#56414F"/>
<path d="M144.842 81.9172C140.711 81.9172 137.281 78.5657 137.281 74.3568C137.281 70.2259 140.633 66.7964 144.842 66.7964C148.973 66.7964 152.402 70.1479 152.402 74.3568C152.402 78.5657 148.973 81.9172 144.842 81.9172ZM144.842 68.8229C141.724 68.8229 139.23 71.3171 139.23 74.4348C139.23 77.5525 141.724 80.0466 144.842 80.0466C147.959 80.0466 150.454 77.5525 150.454 74.4348C150.454 71.3171 147.881 68.8229 144.842 68.8229Z" fill="#56414F"/>
<path d="M144.842 81.9172C140.711 81.9172 137.281 78.5657 137.281 74.3568C137.281 70.2259 140.633 66.7964 144.842 66.7964C148.973 66.7964 152.402 70.1479 152.402 74.3568C152.402 78.5657 148.973 81.9172 144.842 81.9172ZM144.842 68.8229C141.724 68.8229 139.23 71.3171 139.23 74.4348C139.23 77.5525 141.724 80.0466 144.842 80.0466C147.959 80.0466 150.454 77.5525 150.454 74.4348C150.454 71.3171 147.881 68.8229 144.842 68.8229Z" stroke="#56414F"/>
<path d="M72.9009 68.1214C68.77 68.1214 65.3406 64.7699 65.3406 60.561C65.3406 56.43 68.6921 53.0006 72.9009 53.0006C77.0319 53.0006 80.4614 56.3521 80.4614 60.561C80.3835 64.6919 77.0319 68.1214 72.9009 68.1214ZM72.9009 54.9492C69.7832 54.9492 67.2891 57.4433 67.2891 60.561C67.2891 63.6787 69.7832 66.1728 72.9009 66.1728C76.0186 66.1728 78.5128 63.6787 78.5128 60.561C78.5128 57.5212 75.9407 54.9492 72.9009 54.9492Z" fill="#56414F"/>
<path d="M72.9009 68.1214C68.77 68.1214 65.3406 64.7699 65.3406 60.561C65.3406 56.43 68.6921 53.0006 72.9009 53.0006C77.0319 53.0006 80.4614 56.3521 80.4614 60.561C80.3835 64.6919 77.0319 68.1214 72.9009 68.1214ZM72.9009 54.9492C69.7832 54.9492 67.2891 57.4433 67.2891 60.561C67.2891 63.6787 69.7832 66.1728 72.9009 66.1728C76.0186 66.1728 78.5128 63.6787 78.5128 60.561C78.5128 57.5212 75.9407 54.9492 72.9009 54.9492Z" stroke="#56414F"/>
</g>
<defs>
<filter id="filter0_d" x="0" y="0" width="208" height="208" filterUnits="userSpaceOnUse" color-interpolation-filters="sRGB">
<feFlood flood-opacity="0" result="BackgroundImageFix"/>
<feColorMatrix in="SourceAlpha" type="matrix" values="0 0 0 0 0 0 0 0 0 0 0 0 0 0 0 0 0 0 127 0"/>
<feOffset dy="4"/>
<feGaussianBlur stdDeviation="2"/>
<feColorMatrix type="matrix" values="0 0 0 0 0 0 0 0 0 0 0 0 0 0 0 0 0 0 0.25 0"/>
<feBlend mode="normal" in2="BackgroundImageFix" result="effect1_dropShadow"/>
<feBlend mode="normal" in="SourceGraphic" in2="effect1_dropShadow" result="shape"/>
</filter>
</defs>
</svg>
