<svg width="208" height="209" viewBox="0 0 208 209" fill="none" xmlns="http://www.w3.org/2000/svg">
<g filter="url(#filter0_d)">
<path d="M104 200.7C159.228 200.7 204 155.928 204 100.7C204 45.4714 159.228 0.699829 104 0.699829C48.7715 0.699829 4 45.4714 4 100.7C4 155.928 48.7715 200.7 104 200.7Z" fill="#EDDED3"/>
<path d="M103.298 137.489C97.9205 137.489 93.7116 145.439 86.4629 148.011C79.2143 150.583 69.2377 137.878 75.7069 120.497C82.254 103.116 103.298 95.1659 103.298 95.1659C103.298 95.1659 124.343 103.116 130.89 120.497C137.437 137.878 127.461 150.505 120.134 148.011C112.885 145.439 108.677 137.489 103.298 137.489Z" fill="#FDFEFF"/>
<path d="M130.89 120.497C124.343 103.116 103.298 95.1659 103.298 95.1659C103.298 95.1659 100.726 96.1792 97.1409 98.1277C103.922 101.869 114.288 109.196 118.575 120.497C122.862 131.799 120.056 141.152 115.613 145.517C117.016 146.53 118.497 147.387 120.212 147.933C127.46 150.505 137.437 137.878 130.89 120.497Z" fill="#EDDED3"/>
<path d="M122.083 151.206C121.069 151.206 120.134 151.051 119.199 150.739C115.224 149.336 112.184 146.686 109.456 144.348C107.118 142.321 105.013 140.45 103.22 140.45C101.506 140.45 99.3233 142.321 96.9851 144.348C94.335 146.686 91.2953 149.336 87.2423 150.739C82.8775 152.22 77.8113 150.037 74.4597 145.205C69.8611 138.58 69.2376 128.915 72.8229 119.484C79.6819 101.09 101.194 92.8276 102.129 92.4379L103.143 92.0482L104.156 92.4379C105.091 92.7497 126.525 101.09 133.462 119.484C137.047 128.993 136.424 138.58 131.825 145.205C129.331 149.024 125.746 151.206 122.083 151.206ZM103.298 134.605C107.196 134.605 110.313 137.333 113.353 139.983C115.769 142.087 118.185 144.27 121.147 145.283C123.018 145.906 125.434 144.581 127.227 141.931C128.552 140.061 132.527 132.968 128.24 121.51C123.018 107.637 107.507 100.076 103.376 98.2836C99.2454 100.076 83.6569 107.715 78.5127 121.51C74.2259 132.968 78.201 140.061 79.526 141.931C81.3187 144.581 83.7349 145.906 85.6055 145.283C88.5673 144.27 90.9835 142.087 93.3997 139.983C96.2836 137.333 99.4013 134.605 103.298 134.605Z" fill="#56414F"/>
<path d="M91.0971 81.6541C96.0038 81.6024 99.9192 75.1752 99.8422 67.2985C99.7652 59.4217 95.7251 53.0783 90.8183 53.13C85.9115 53.1817 81.9962 59.609 82.0732 67.4857C82.1502 75.3624 86.1903 81.7059 91.0971 81.6541Z" fill="#FDFEFF"/>
<path d="M92.0745 53.233C90.4377 53.0772 88.8788 53.7787 87.4759 54.8699C90.5156 57.2861 92.3083 62.5082 91.8407 68.4318C91.451 73.6539 89.2686 78.0187 86.4626 80.279C87.4759 81.0585 88.5671 81.5261 89.8142 81.682C94.7245 82.0717 99.1673 75.9922 99.7908 68.1201C100.414 60.3258 96.9849 53.6228 92.0745 53.233Z" fill="#EDDED3"/>
<path d="M91.0614 84.6437C84.5142 84.6437 79.2921 77.1612 79.2141 67.5743C79.1362 57.9095 84.2025 50.3491 90.8276 50.2711C97.4527 50.2711 102.675 57.7536 102.753 67.3405C102.831 77.0054 97.7644 84.5657 91.1393 84.6437H91.0614ZM90.9055 56.0389C88.0216 56.0389 84.9819 60.7933 84.9819 67.4964C85.0598 74.1994 88.2555 78.876 91.0614 78.876V81.7598V78.876C93.8673 78.876 96.985 74.1215 96.9071 67.4184C96.8291 60.7154 93.7114 56.0389 90.9055 56.0389Z" fill="#56414F"/>
<path d="M72.5111 81.76C76.1744 88.6969 75.7068 96.2573 71.342 98.5176C67.0552 100.778 60.508 97.0367 56.7668 90.0219C53.1035 83.085 53.5712 75.5246 57.858 73.2643C62.3007 71.0039 68.7699 74.8231 72.5111 81.76Z" fill="#FDFEFF"/>
<path d="M58.1699 73.1862C56.689 73.9656 55.6757 75.2906 55.1301 77.0833C58.9493 77.551 63.3141 81.0584 66.0421 86.2805C68.4583 90.957 68.9259 95.7894 67.7568 99.2189C69.0038 99.3748 70.2509 99.2189 71.3421 98.6733C75.7069 96.413 76.2525 88.9305 72.6672 81.9157C69.0039 74.8229 62.5346 71.0038 58.1699 73.1862Z" fill="#EDDED3"/>
<path d="M68.614 102.103C63.3918 102.103 57.78 97.8938 54.2726 91.4246C49.7519 82.9289 50.7652 73.8096 56.6109 70.692C57.8579 69.9905 59.2609 69.6787 60.7418 69.6787C65.9639 69.6787 71.5758 73.8876 75.0832 80.3568C79.6038 88.8525 78.5906 97.9718 72.7449 101.089C71.4978 101.791 70.0949 102.103 68.614 102.103ZM60.7418 75.5244C60.1962 75.5244 59.7285 75.6023 59.3388 75.8361C56.8447 77.1611 56.2211 82.773 59.4168 88.6966C62.6124 94.7761 67.6007 97.2703 70.0169 95.9452C72.5111 94.6202 73.0567 89.0084 69.939 83.0848C67.289 78.0964 63.3139 75.5244 60.7418 75.5244Z" fill="#56414F"/>
<path d="M135.488 81.76C131.825 88.6969 132.293 96.2573 136.658 98.5176C140.944 100.778 147.492 97.0367 151.233 90.0219C154.896 83.085 154.428 75.5246 150.142 73.2643C145.699 71.0039 139.152 74.8231 135.488 81.76Z" fill="#FDFEFF"/>
<path d="M149.986 73.2642C148.505 72.4848 146.79 72.4848 145.075 72.9524C146.868 76.3819 146.478 81.9158 143.672 87.138C141.178 91.7366 137.515 94.9322 134.085 95.9454C134.709 97.0366 135.488 97.972 136.58 98.5176C140.866 100.778 147.414 97.0366 151.155 90.0218C154.818 83.085 154.35 75.6025 149.986 73.2642Z" fill="#EDDED3"/>
<path d="M139.386 102.103C137.905 102.103 136.502 101.791 135.255 101.089C129.409 97.9718 128.396 88.9304 132.917 80.3568C136.346 73.8876 141.958 69.6787 147.258 69.6787C148.739 69.6787 150.142 69.9905 151.389 70.692C157.235 73.8096 158.248 82.8509 153.727 91.4246C150.298 97.8938 144.608 102.103 139.386 102.103ZM147.258 75.5244C144.686 75.5244 140.711 78.0965 138.061 83.1627C134.943 89.0863 135.489 94.6982 137.983 96.0232C140.399 97.2703 145.387 94.7761 148.583 88.7746C151.701 82.851 151.155 77.2391 148.661 75.9141C148.271 75.6023 147.804 75.5244 147.258 75.5244Z" fill="#56414F"/>
<path d="M118.689 53.247C113.782 53.1972 109.74 59.5422 109.66 67.4189C109.58 75.2956 113.493 81.7212 118.4 81.771C123.306 81.8208 127.349 75.4759 127.429 67.5992C127.509 59.7225 123.596 53.2968 118.689 53.247Z" fill="#FDFEFF"/>
<path d="M119.121 53.3888C117.484 53.2329 115.925 53.9344 114.444 55.0256C117.484 57.4418 119.277 62.6639 118.809 68.5876C118.419 73.8097 116.237 78.1745 113.431 80.4348C114.444 81.2142 115.535 81.6819 116.782 81.8378C121.693 82.2275 126.135 76.148 126.759 68.2758C127.461 60.4815 124.031 53.7785 119.121 53.3888Z" fill="#EDDED3"/>
<path d="M118.419 84.6437H118.341C111.716 84.5657 106.65 77.0054 106.728 67.3405C106.806 57.7536 112.028 50.2711 118.575 50.2711C125.278 50.3491 130.344 57.9095 130.267 67.5743C130.189 77.1612 124.966 84.6437 118.419 84.6437ZM118.653 56.0389C115.847 56.0389 112.652 60.7154 112.574 67.3405C112.496 74.0436 115.613 78.798 118.419 78.798V81.6819V78.798C121.225 78.798 124.421 74.1215 124.499 67.4184C124.577 60.7933 121.459 56.1168 118.653 56.0389Z" fill="#56414F"/>
</g>
<defs>
<filter id="filter0_d" x="0" y="0.699829" width="208" height="208" filterUnits="userSpaceOnUse" color-interpolation-filters="sRGB">
<feFlood flood-opacity="0" result="BackgroundImageFix"/>
<feColorMatrix in="SourceAlpha" type="matrix" values="0 0 0 0 0 0 0 0 0 0 0 0 0 0 0 0 0 0 127 0"/>
<feOffset dy="4"/>
<feGaussianBlur stdDeviation="2"/>
<feColorMatrix type="matrix" values="0 0 0 0 0 0 0 0 0 0 0 0 0 0 0 0 0 0 0.25 0"/>
<feBlend mode="normal" in2="BackgroundImageFix" result="effect1_dropShadow"/>
<feBlend mode="normal" in="SourceGraphic" in2="effect1_dropShadow" result="shape"/>
</filter>
</defs>
</svg>
