<svg width="208" height="208" viewBox="0 0 208 208" fill="none" xmlns="http://www.w3.org/2000/svg">
<g filter="url(#filter0_d)">
<path d="M104 200C159.228 200 204 155.228 204 100C204 44.7715 159.228 0 104 0C48.7715 0 4 44.7715 4 100C4 155.228 48.7715 200 104 200Z" fill="#E8FBF6"/>
<path d="M135.411 43.1171C128.396 36.1023 117.095 36.1023 110.08 43.1171C103.455 49.7422 103.143 60.3423 109.222 67.3571L78.2793 98.3002C71.2645 92.2987 60.6643 92.5325 54.0392 99.1576C47.0244 106.172 47.0244 117.474 54.0392 124.489C57.7025 128.152 62.5349 129.867 67.3673 129.711C67.2115 134.543 68.9262 139.376 72.5895 143.039C79.6043 150.054 90.9059 150.054 97.9208 143.039C104.39 136.57 104.78 126.359 99.2457 119.345L130.267 88.3236C137.282 93.8575 147.492 93.4678 153.961 86.9986C160.976 79.9838 160.976 68.6821 153.961 61.6673C150.298 58.004 145.466 56.2893 140.633 56.4452C140.789 51.6128 139.074 46.7804 135.411 43.1171Z" fill="white"/>
<path d="M153.961 61.589C151.779 59.4066 149.051 57.9257 146.245 57.0684C149.596 63.7714 148.427 72.1112 142.893 77.6451C136.424 84.1143 126.214 84.5041 119.199 78.9702L88.1778 109.991C93.7117 117.006 93.322 127.216 86.8528 133.686C82.0983 138.44 75.3173 139.999 69.2378 138.206C70.0952 139.921 71.1864 141.48 72.5894 142.883C79.6042 149.898 90.9058 149.898 97.9206 142.883C104.39 136.414 104.779 126.203 99.2456 119.188L130.267 88.1673C137.281 93.7013 147.492 93.3116 153.961 86.8423C160.976 79.9055 160.976 68.6038 153.961 61.589Z" fill="#DCDBDB"/>
<path d="M134.554 42.2592C134.242 41.9475 133.852 41.7136 133.54 41.4019C133.54 41.6357 133.618 41.8695 133.618 42.1813C133.93 42.1813 134.242 42.1813 134.554 42.2592Z" fill="#DCDBDB"/>
<path d="M85.2158 150.677C79.7598 150.677 74.6936 148.573 70.7965 144.676C67.367 141.246 65.3405 136.803 64.9508 132.049C60.1184 131.659 55.6757 129.633 52.3242 126.203C44.374 118.253 44.374 105.315 52.3242 97.3647C56.1433 93.5455 61.2096 91.4411 66.5876 91.4411C70.7185 91.4411 74.6936 92.6881 78.0451 94.9485L105.948 67.0451C100.57 59.095 101.428 48.1831 108.365 41.2462C112.184 37.427 117.328 35.2446 122.784 35.2446C128.24 35.2446 133.306 37.3491 137.203 41.2462C140.633 44.6757 142.659 49.1184 143.049 53.8728C147.881 54.2626 152.324 56.2891 155.676 59.7185C159.495 63.5377 161.677 68.6819 161.677 74.1378C161.677 79.5938 159.573 84.6601 155.676 88.5572C151.856 92.3764 146.79 94.4808 141.412 94.4808C137.593 94.4808 133.774 93.3896 130.578 91.3631L102.441 119.5C107.429 127.45 106.338 137.895 99.6351 144.676C95.738 148.573 90.6717 150.677 85.2158 150.677ZM69.9391 127.139L69.8612 129.789C69.7053 134.153 71.2641 138.284 74.3039 141.324C77.1877 144.208 81.0848 145.845 85.2158 145.845C89.3467 145.845 93.2438 144.208 96.1277 141.324C101.584 135.79 102.129 127.061 97.2968 120.903L95.9719 119.189L130.111 85.0498L131.825 86.3748C134.553 88.5572 137.983 89.7263 141.412 89.7263C145.465 89.7263 149.362 88.1675 152.246 85.2057C155.13 82.3218 156.767 78.4247 156.767 74.2937C156.767 70.1628 155.13 66.2657 152.246 63.3818C149.362 60.4979 145.465 58.9391 141.334 58.9391L138.139 59.017L138.217 56.367C138.372 52.0022 136.814 47.8713 133.774 44.8315C130.89 41.9477 126.993 40.3109 122.862 40.3109C118.731 40.3109 114.834 41.9477 111.95 44.8315C106.338 50.4434 105.948 59.6406 111.171 65.7201L112.651 67.4348L78.4348 101.574L76.7201 100.093C73.9142 97.6764 70.3288 96.3514 66.6655 96.3514C62.6125 96.3514 58.7154 97.9103 55.8316 100.872C49.83 106.874 49.83 116.694 55.8316 122.696C58.7154 125.58 62.6125 127.139 66.7435 127.139H69.9391Z" fill="#56414F"/>
</g>
<defs>
<filter id="filter0_d" x="0" y="0" width="208" height="208" filterUnits="userSpaceOnUse" color-interpolation-filters="sRGB">
<feFlood flood-opacity="0" result="BackgroundImageFix"/>
<feColorMatrix in="SourceAlpha" type="matrix" values="0 0 0 0 0 0 0 0 0 0 0 0 0 0 0 0 0 0 127 0"/>
<feOffset dy="4"/>
<feGaussianBlur stdDeviation="2"/>
<feColorMatrix type="matrix" values="0 0 0 0 0 0 0 0 0 0 0 0 0 0 0 0 0 0 0.25 0"/>
<feBlend mode="normal" in2="BackgroundImageFix" result="effect1_dropShadow"/>
<feBlend mode="normal" in="SourceGraphic" in2="effect1_dropShadow" result="shape"/>
</filter>
</defs>
</svg>
