<svg width="209" height="208" viewBox="0 0 209 208" fill="none" xmlns="http://www.w3.org/2000/svg">
<g filter="url(#filter0_d)">
<path d="M104.3 200C159.529 200 204.3 155.228 204.3 100C204.3 44.7715 159.529 0 104.3 0C49.0716 0 4.30005 44.7715 4.30005 100C4.30005 155.228 49.0716 200 104.3 200Z" fill="#F0F1E1"/>
<path d="M161.51 109.587C156.21 141.154 126.28 162.51 94.6351 157.132C63.0685 151.832 41.7123 121.902 47.0903 90.2573C50.5977 69.6805 64.4714 53.4685 82.4761 46.1419C92.1409 42.2448 102.897 40.8419 113.887 42.7125C145.531 48.0905 166.81 78.0203 161.51 109.587Z" fill="#E8FBF6"/>
<path d="M113.887 42.7903C107.652 41.777 101.572 41.777 95.6484 42.6344C96.0381 42.7123 96.3499 42.7123 96.7396 42.7903C128.306 48.0904 149.662 78.0202 144.284 109.665C139.998 135.074 119.811 153.78 95.7264 157.366C126.903 161.964 156.21 140.842 161.432 109.665C166.81 78.0202 145.532 48.0904 113.887 42.7903Z" fill="#CEE1F2"/>
<path d="M94.6351 42.7903C100.87 41.777 106.95 41.777 112.874 42.6344C112.484 42.7123 112.172 42.7123 111.782 42.7903C80.2158 48.0904 52.4683 65.7833 56.4434 107.015C59.5611 139.673 88.6336 153.702 112.796 157.366C81.6187 161.964 52.3124 140.842 47.0903 109.665C41.7123 78.0202 63.0685 48.0904 94.6351 42.7903Z" fill="#CEE1F2"/>
<path d="M104.3 160.561C100.948 160.561 97.519 160.249 94.1675 159.704C61.1979 154.17 38.9064 122.837 44.4403 89.8676C47.9477 68.979 61.8214 51.7537 81.4629 43.7257C91.8292 39.5168 103.209 38.2697 114.277 40.1403C147.246 45.6743 169.538 77.0071 164.004 109.977C159.093 139.361 133.996 160.561 104.3 160.561ZM104.222 44.5051C97.0514 44.5051 90.1145 45.9081 83.4894 48.5581C65.5627 55.8847 52.8581 71.6291 49.6624 90.7249C44.5962 120.889 64.9391 149.493 95.1028 154.56C98.1426 155.105 101.26 155.339 104.378 155.339C131.502 155.339 154.417 135.931 158.938 109.119C164.004 78.9556 143.583 50.3508 113.497 45.2845C110.379 44.8169 107.262 44.5051 104.222 44.5051Z" fill="#56414F"/>
<path d="M140.231 144.115L139.842 142.868C136.49 132.814 136.334 132.424 123.863 123.149C117.55 118.394 113.809 111.691 113.185 103.741C112.328 93.0632 117.082 82.7748 121.915 77.7865C132.203 67.0304 132.437 50.8964 132.437 50.7405H137.659C137.659 51.5199 137.503 69.1349 125.734 81.3718C121.603 85.7366 117.706 94.622 118.485 103.352C119.031 109.899 121.915 115.199 127.059 119.018C140.465 129.073 141.089 130.164 144.83 141.309L145.22 142.557L140.231 144.115Z" fill="#56414F"/>
<path d="M80.1379 59.9377C79.9041 59.8598 79.7482 59.7818 79.5923 59.548C79.2026 59.0803 79.2805 58.3789 79.7482 57.9891C80.2938 57.5215 92.9984 47.2331 111.627 51.8317C112.25 51.9876 112.562 52.6111 112.406 53.1567C112.25 53.7802 111.627 54.092 111.081 53.9361C93.544 49.5714 81.307 59.548 81.1511 59.6259C80.8394 59.9377 80.4497 60.0156 80.1379 59.9377Z" fill="white"/>
<path d="M66.0302 144.349L61.1199 142.712L61.3537 142.011C65.1729 130.475 65.4846 129.54 77.4878 118.238C89.8806 106.547 86.3732 86.9836 81.0731 80.2805C72.1877 68.901 71.9539 50.9742 71.8759 50.2727L77.0981 50.1948C77.0981 50.3507 77.3319 67.1083 85.1261 77.0849C91.5953 85.3468 95.8822 108.028 80.9952 122.058C69.9274 132.502 69.8494 132.736 66.1861 143.726L66.0302 144.349Z" fill="#56414F"/>
<path d="M66.498 73.1099C66.2642 73.1099 66.0303 73.032 65.7965 72.8761C65.173 72.4864 65.0171 71.707 65.4068 71.0834C66.8098 69.0569 68.2907 67.0304 70.0054 65.2377C70.4731 64.6921 71.3304 64.6921 71.876 65.1598C72.4216 65.6274 72.4216 66.4848 71.954 67.0304C70.3951 68.7451 68.9142 70.5378 67.5892 72.4864C67.3554 72.8761 66.8877 73.1099 66.498 73.1099Z" fill="white"/>
</g>
<defs>
<filter id="filter0_d" x="0.300049" y="0" width="208" height="208" filterUnits="userSpaceOnUse" color-interpolation-filters="sRGB">
<feFlood flood-opacity="0" result="BackgroundImageFix"/>
<feColorMatrix in="SourceAlpha" type="matrix" values="0 0 0 0 0 0 0 0 0 0 0 0 0 0 0 0 0 0 127 0"/>
<feOffset dy="4"/>
<feGaussianBlur stdDeviation="2"/>
<feColorMatrix type="matrix" values="0 0 0 0 0 0 0 0 0 0 0 0 0 0 0 0 0 0 0.25 0"/>
<feBlend mode="normal" in2="BackgroundImageFix" result="effect1_dropShadow"/>
<feBlend mode="normal" in="SourceGraphic" in2="effect1_dropShadow" result="shape"/>
</filter>
</defs>
</svg>
