<svg width="14" height="13" viewBox="0 0 14 13" fill="none" xmlns="http://www.w3.org/2000/svg">
<path d="M12.3017 5.32641C12.3045 5.32648 12.3073 5.32653 12.3098 5.32656C12.3151 5.32662 12.3196 5.32662 12.3224 5.32662H12.3225C12.5338 5.32653 12.7403 5.25063 12.8972 5.10972C13.0547 4.96824 13.1502 4.7712 13.1558 4.55902C13.1558 4.559 13.1558 4.55899 13.1558 4.55897L13.2499 1.00662L13.2569 0.744195L12.9944 0.750062L9.13299 0.836385C9.13298 0.836385 9.13297 0.836385 9.13296 0.836385C9.02621 0.838763 8.92053 0.860459 8.82181 0.900697C8.72307 0.940945 8.6326 0.999224 8.55611 1.07313C8.47958 1.14709 8.41846 1.23535 8.37735 1.33344C8.33646 1.43102 8.31647 1.53577 8.31907 1.64155C8.32062 1.74819 8.34526 1.85285 8.39085 1.94924L8.61685 1.84236L8.39085 1.94924C8.43667 2.04613 8.50242 2.13212 8.58308 2.20281C8.66369 2.27345 8.75773 2.32756 8.8592 2.36289C8.96014 2.39803 9.06711 2.41414 9.17405 2.41065L10.283 2.38581L8.22824 4.25748C7.30182 3.65846 6.17369 3.38397 5.04688 3.48438C3.85122 3.59093 2.74018 4.11226 1.941 4.94826C1.14122 5.7849 0.713941 6.87438 0.752385 7.99617C0.790827 9.11786 1.29172 10.1796 2.14633 10.9674C3.00035 11.7547 4.14414 12.2105 5.34459 12.2476C6.54502 12.2846 7.71872 11.9003 8.62727 11.1682C9.53637 10.4356 10.1132 9.40795 10.2332 8.29144C10.3448 7.2524 10.0523 6.21568 9.41683 5.36363L11.5166 3.45098L11.4884 4.51939C11.4884 4.51943 11.4884 4.51946 11.4884 4.5195C11.4884 4.51952 11.4884 4.51955 11.4884 4.51957C11.4856 4.62592 11.5055 4.73128 11.5467 4.82937C11.5878 4.92746 11.6489 5.01572 11.7254 5.08968C11.8019 5.16359 11.8924 5.22187 11.9911 5.26211C12.0897 5.30228 12.1951 5.32397 12.3017 5.32641ZM12.3017 5.32641C12.3015 5.32641 12.3013 5.3264 12.3011 5.3264L12.3078 5.07649L12.3023 5.32643C12.3021 5.32642 12.3019 5.32642 12.3017 5.32641ZM7.69767 9.8378L7.69648 9.83889C7.26639 10.2346 6.716 10.5061 6.11398 10.6163C5.51191 10.7264 4.88805 10.6697 4.32203 10.4541C3.75611 10.2384 3.27569 9.87443 2.93929 9.41124C2.60311 8.94836 2.42523 8.40659 2.42523 7.85436C2.42523 7.30214 2.60311 6.76036 2.93929 6.29748C3.27569 5.8343 3.75611 5.47033 4.32203 5.25467C4.88805 5.03898 5.51191 4.98228 6.11398 5.09246C6.716 5.20263 7.26639 5.47415 7.69648 5.86983L7.69768 5.87092C7.98539 6.13221 8.21259 6.44231 8.36721 6.78261C8.52179 7.12283 8.60105 7.48706 8.60105 7.85436C8.60105 8.22167 8.52179 8.5859 8.36721 8.92612C8.21259 9.26641 7.98539 9.57651 7.69767 9.8378Z" fill="#CEE1F2" stroke="#CEE1F2" stroke-width="0.5"/>
</svg>
