<svg width="24" height="24" viewBox="0 0 24 24" fill="none" xmlns="http://www.w3.org/2000/svg">
<g clip-path="url(#clip0)">
<path d="M17.2898 14.0603C17.9259 14.0603 18.4433 13.5428 18.4433 12.9067C18.4433 12.7125 18.2859 12.5552 18.0918 12.5552C17.8976 12.5552 17.7402 12.7125 17.7402 12.9067C17.7402 13.1551 17.5381 13.3572 17.2898 13.3572C17.0414 13.3572 16.8394 13.1551 16.8394 12.9067C16.8394 12.7125 16.6819 12.5552 16.4878 12.5552C16.2936 12.5552 16.1362 12.7125 16.1362 12.9067C16.1362 13.5428 16.6537 14.0603 17.2898 14.0603Z" fill="#749EC1"/>
<path d="M19.1333 12.0883C19.3275 12.0883 19.4849 11.931 19.4849 11.7368V11.3694C19.6584 11.3479 19.7928 11.1999 19.7928 11.0205C19.7928 10.8263 19.6354 10.6689 19.4413 10.6689H19.1333C18.9391 10.6689 18.7817 10.8263 18.7817 11.0205V11.7368C18.7817 11.931 18.9391 12.0883 19.1333 12.0883Z" fill="#749EC1"/>
<path d="M15.0951 11.3694V11.7368C15.0951 11.931 15.2525 12.0883 15.4466 12.0883C15.6408 12.0883 15.7982 11.931 15.7982 11.7368V11.0205C15.7982 10.8263 15.6408 10.6689 15.4466 10.6689H15.1387C14.9445 10.6689 14.7871 10.8263 14.7871 11.0205C14.7871 11.1998 14.9215 11.3479 15.0951 11.3694Z" fill="#749EC1"/>
<path d="M22.5443 11.7999C22.6441 11.5888 22.7002 11.3531 22.7002 11.1044C22.7002 10.6907 22.5453 10.3126 22.2908 10.0244C22.3312 9.96716 22.3551 9.89751 22.3551 9.82208C22.3551 8.78371 22.407 8.16791 22.0946 7.27476C22.0305 7.09147 21.8299 6.99468 21.6466 7.05894C21.4634 7.12302 21.3668 7.3236 21.4308 7.50688C21.6862 8.23677 21.6519 8.74307 21.6519 9.47052C21.2035 9.47052 19.9955 9.47052 19.4862 9.47052C18.469 9.47052 17.6415 8.64299 17.6414 7.6258C17.6414 7.4316 17.484 7.27424 17.2898 7.27424C17.0957 7.27424 16.9383 7.4316 16.9383 7.6258C16.9383 8.64299 16.1107 9.47052 15.0935 9.47052H13.5659H12.9277V8.81558C12.9277 6.63074 14.7052 4.85324 16.8901 4.85324C16.9167 4.85324 16.9383 4.87485 16.9383 4.90143C16.9383 5.09558 17.0957 5.25294 17.2898 5.25294C17.484 5.25294 17.6414 5.09558 17.6414 4.90143C17.6414 4.87485 17.663 4.85324 17.6896 4.85324C18.835 4.85329 19.9239 5.34885 20.6773 6.21285C20.8049 6.35924 21.027 6.37433 21.1733 6.24683C21.3197 6.11919 21.3349 5.89715 21.2073 5.7508C20.3204 4.73361 19.0382 4.15021 17.6896 4.15016C17.5428 4.15016 17.4057 4.19249 17.2899 4.26557C17.1741 4.19249 17.037 4.15016 16.8901 4.15016C14.3176 4.15016 12.2247 6.24308 12.2247 8.81563V9.82213C12.2247 9.8975 12.2486 9.96721 12.289 10.0244C12.171 10.1581 12.0743 10.3109 12.0047 10.4779C11.9625 9.95947 11.7009 9.50418 11.3104 9.20633V7.86697C11.3104 5.22997 9.16509 3.08465 6.52809 3.08465C5.87334 3.08465 6.1357 3.07335 5.23008 3.14413C3.98086 3.24163 2.86294 3.91011 2.1862 4.95008L1.12748 4.61169C0.908109 4.54138 0.680344 4.6986 0.669281 4.92979C0.664266 5.03572 0.558187 7.39007 0.987469 9.0299C0.402609 9.32324 0 9.92835 0 10.6261C0 11.5314 0.677625 12.2815 1.55236 12.3958C1.77253 13.3404 2.29266 14.1979 3.0367 14.8339C3.2318 15.0006 3.43997 15.149 3.65794 15.2794H2.91816C1.70264 15.2794 0.713766 16.2683 0.713766 17.4838V20.5646C0.713766 20.7588 0.871172 20.9161 1.06533 20.9161H1.64934C1.8435 20.9161 2.00091 20.7588 2.00091 20.5646C2.00091 20.3704 1.8435 20.213 1.64934 20.213H1.41689V17.4838C1.41689 16.656 2.09034 15.9825 2.91816 15.9825H3.94088C4.11558 17.0191 5.05308 17.7985 6.14831 17.7278C7.13977 17.6639 7.9253 16.918 8.08313 15.9825H9.10598C9.9338 15.9825 10.6073 16.656 10.6073 17.4838V20.213H3.29002C3.09586 20.213 2.93845 20.3704 2.93845 20.5646C2.93845 20.7588 3.09586 20.9161 3.29002 20.9161H10.9589C11.1531 20.9161 11.3105 20.7588 11.3105 20.5646V17.4838C11.3105 17.1911 11.2526 16.9117 11.1486 16.6559H11.7134C12.0671 16.6559 12.4044 16.5853 12.7127 16.458C12.4958 16.7934 12.3693 17.1925 12.3693 17.6208V20.5646C12.3693 20.7588 12.5267 20.9161 12.7209 20.9161H21.8826C22.0768 20.9161 22.2342 20.7588 22.2342 20.5646V17.6208C22.2342 17.1978 22.1108 16.8033 21.8988 16.4705C22.1985 16.5897 22.5248 16.6559 22.8666 16.6559H23.6484C23.8426 16.6559 24 16.4985 24 16.3043V14.1512C24 13.1496 23.4195 12.2391 22.5443 11.7999ZM15.0936 10.1737C16.028 10.1737 16.8465 9.66819 17.2899 8.91618C17.7334 9.66819 18.5519 10.1737 19.4863 10.1737H21.0663C21.5796 10.1737 21.9971 10.5912 21.9971 11.1044C21.9971 11.3554 21.8968 11.583 21.7348 11.7506C21.5497 11.9418 21.293 12.0449 21.029 12.0342C20.8512 12.026 20.6967 12.1524 20.6674 12.3274C20.4 13.9265 19.0167 15.1828 17.2899 15.1828C16.07 15.1828 14.9304 14.5379 14.3172 13.4653C14.3115 13.4508 14.3049 13.4366 14.2973 13.4229C14.1541 13.1661 14.0456 12.8949 13.9731 12.6134C13.9717 12.6078 13.9705 12.6021 13.9691 12.5965C13.9491 12.5172 13.9301 12.433 13.9125 12.3274C13.8833 12.1528 13.728 12.0261 13.5509 12.0341C13.0247 12.0555 12.5828 11.631 12.5828 11.1043C12.5828 10.5911 13.0004 10.1736 13.5135 10.1736C13.5263 10.1736 13.5391 10.1742 13.5518 10.1746C13.5668 10.1752 13.5816 10.1749 13.5962 10.1736H15.0936V10.1737ZM17.2957 17.3648C16.6268 17.3648 16.0826 16.8206 16.0826 16.1517V15.8244V15.7062C16.4816 15.8286 16.8983 15.8861 17.2899 15.8861C17.6944 15.8861 18.1156 15.8247 18.5088 15.7027V16.1517C18.5088 16.7998 17.998 17.3308 17.358 17.3633C17.3374 17.3643 17.3166 17.3648 17.2957 17.3648ZM14.5168 15.4728C14.5167 15.4728 14.5165 15.4728 14.5164 15.4728C14.2754 15.4729 14.0438 15.5135 13.8274 15.5871C14.0447 15.2934 14.202 14.953 14.2819 14.5839C14.385 14.6938 14.4941 14.7987 14.6095 14.8973C14.8471 15.1004 15.1057 15.2741 15.3795 15.417V15.4728H14.5168ZM19.212 15.4112C19.6099 15.2019 19.974 14.9289 20.2979 14.584C20.3768 14.9486 20.5316 15.2852 20.7449 15.5766C20.3435 15.4469 20.1341 15.4728 19.212 15.4728V15.4112H19.212ZM1.36013 5.42418L2.23711 5.70444C2.39691 5.7554 2.57062 5.68654 2.65181 5.53963C3.19045 4.56519 4.17478 3.93168 5.28483 3.8451C6.16866 3.7761 5.90067 3.78772 6.52809 3.78772C8.77734 3.78772 10.6073 5.61763 10.6073 7.86693V8.88247C10.3001 8.81633 10.3973 8.84268 5.57569 8.84268C5.22516 8.84268 4.88939 8.76477 4.58686 8.6241C3.92128 8.31463 3.41653 7.70136 3.26869 6.94565C3.2122 6.6569 2.8568 6.57004 2.66695 6.77296C2.15981 7.31511 1.80525 7.95735 1.61273 8.62387C1.371 7.53036 1.35145 6.13494 1.36013 5.42418ZM2.18986 11.9998C2.16141 11.8298 2.01427 11.7063 1.84327 11.7063C1.83853 11.7063 1.83375 11.7064 1.82897 11.7066C1.8143 11.7072 1.79963 11.7077 1.78481 11.7077C1.18837 11.7077 0.703125 11.2225 0.703125 10.6261C0.703125 10.0397 1.17056 9.56568 1.74553 9.54538C1.74694 9.54533 1.74839 9.54533 1.7498 9.54529C1.77595 9.54449 1.80211 9.54449 1.82812 9.54557C1.82869 9.54557 1.82925 9.54557 1.82981 9.54561C1.83089 9.54566 1.83197 9.54552 1.83305 9.54557C2.00841 9.551 2.16084 9.42571 2.18986 9.25232C2.26922 8.7778 2.43586 8.3264 2.68027 7.91718C2.71519 7.85872 2.7517 7.80112 2.78977 7.74444C3.2737 8.81924 4.35572 9.54585 5.57569 9.54585H10.277H10.2773C10.4479 9.55372 10.6257 9.60524 10.7789 9.69651C10.7816 9.69815 10.7845 9.69922 10.7873 9.70077C11.1005 9.89019 11.3081 10.2333 11.3081 10.626C11.3081 11.2225 10.8228 11.7077 10.2264 11.7077C10.2116 11.7077 10.1969 11.7071 10.1822 11.7065C10.0053 11.7002 9.85055 11.8251 9.8213 11.9998C9.50269 13.905 7.86328 15.2258 6.00558 15.2258C4.13358 15.2258 2.50622 13.8914 2.18986 11.9998ZM5.94155 17.0278C5.25361 16.9934 4.6927 16.4583 4.6223 15.7759C4.62178 15.7708 4.6215 15.7656 4.62103 15.7604C4.61963 15.7452 4.61845 15.7299 4.61756 15.7146C5.08055 15.8623 5.56331 15.9289 6.00567 15.9289C6.45638 15.9289 6.94303 15.86 7.40714 15.7102C7.36462 16.4759 6.70823 17.0661 5.94155 17.0278ZM9.10603 15.2794H8.35336C8.57133 15.149 8.7795 15.0006 8.97459 14.8339C9.71859 14.198 10.2388 13.3405 10.4589 12.3958C11.1124 12.3104 11.6558 11.8701 11.8888 11.2754C11.9082 11.4612 11.9589 11.6378 12.0355 11.7999C11.1602 12.2391 10.5798 13.1496 10.5798 14.1512V15.8461C10.189 15.4941 9.67219 15.2794 9.10603 15.2794ZM11.283 15.9528V14.1512C11.283 13.3689 11.7662 12.662 12.4793 12.3692C12.7129 12.5599 12.9941 12.6797 13.2752 12.721C13.3564 13.0602 13.4843 13.3914 13.6386 13.6834V14.0274C13.6386 15.089 12.7749 15.9527 11.7133 15.9527H11.283V15.9528ZM21.531 20.213H13.0724V17.6208C13.0724 16.8241 13.7206 16.1759 14.5173 16.1759H15.3796C15.3926 17.2141 16.2413 18.068 17.2957 18.068C18.3381 18.068 19.1986 17.2272 19.2118 16.1759H20.0861C20.8828 16.1759 21.531 16.8241 21.531 17.6208V20.213H21.531ZM23.2969 15.9528H22.8665C21.8048 15.9528 20.9412 15.0891 20.9412 14.0274V13.6835C21.0978 13.3871 21.2244 13.0559 21.3045 12.7211C21.5687 12.6823 21.835 12.575 22.0667 12.395C22.0779 12.3863 22.0895 12.3783 22.1004 12.3693C22.8136 12.662 23.2969 13.3689 23.2969 14.1512V15.9528Z" fill="#749EC1"/>
<path d="M6.00581 13.8946C6.69394 13.8946 7.25377 13.3347 7.25377 12.6466C7.25377 12.4524 7.09636 12.295 6.9022 12.295C6.70805 12.295 6.55064 12.4524 6.55064 12.6466C6.55064 12.947 6.30624 13.1914 6.00581 13.1914C5.70539 13.1914 5.46094 12.947 5.46094 12.6466C5.46094 12.4524 5.30353 12.295 5.10938 12.295C4.91522 12.295 4.75781 12.4524 4.75781 12.6466C4.75786 13.3347 5.31769 13.8946 6.00581 13.8946Z" fill="#749EC1"/>
<path d="M3.94531 10.1984C3.75116 10.1984 3.59375 10.3557 3.59375 10.5499V11.3272C3.59375 11.5214 3.75116 11.6788 3.94531 11.6788C4.13947 11.6788 4.29688 11.5214 4.29688 11.3272V10.5499C4.29688 10.3558 4.13947 10.1984 3.94531 10.1984Z" fill="#749EC1"/>
<path d="M8.06592 11.6788C8.26007 11.6788 8.41748 11.5214 8.41748 11.3272V10.5499C8.41748 10.3557 8.26007 10.1984 8.06592 10.1984C7.87176 10.1984 7.71436 10.3557 7.71436 10.5499V11.3272C7.71436 11.5214 7.87176 11.6788 8.06592 11.6788Z" fill="#749EC1"/>
</g>
<defs>
<clipPath id="clip0">
<rect width="24" height="24" fill="white"/>
</clipPath>
</defs>
</svg>
