<svg width="24" height="24" viewBox="0 0 24 24" fill="none" xmlns="http://www.w3.org/2000/svg">
<g clip-path="url(#clip0)">
<path d="M7.42218 6.38476C7.42218 5.88544 7.10724 5.49414 6.70514 5.49414C6.30322 5.49414 5.98828 5.88525 5.98828 6.38476C5.98828 6.88409 6.30322 7.27521 6.70514 7.27521C7.10724 7.27521 7.42218 6.88409 7.42218 6.38476Z" fill="#749EC1"/>
<path d="M13.3504 6.38476C13.3504 5.88544 13.0355 5.49414 12.6335 5.49414C12.2314 5.49414 11.9165 5.88525 11.9165 6.38476C11.9165 6.88409 12.2314 7.27521 12.6335 7.27521C13.0355 7.27521 13.3504 6.88409 13.3504 6.38476Z" fill="#749EC1"/>
<path d="M9.66925 9.10437C9.86444 9.10437 10.0225 8.94635 10.0225 8.75116V7.95923C10.435 7.84094 10.7545 7.52856 10.7545 7.19275C10.7545 7.0697 10.7071 6.77216 10.2682 6.66833C10.1243 6.63428 9.94519 6.61963 9.66925 6.61963C9.39349 6.61963 9.21442 6.63428 9.07031 6.66833C8.63141 6.77216 8.58398 7.0697 8.58398 7.19275C8.58398 7.52856 8.9035 7.84094 9.31604 7.95923V8.75116C9.31604 8.94635 9.47424 9.10437 9.66925 9.10437Z" fill="#749EC1"/>
<path d="M17.8324 9.80825C18.268 10.8228 18.8101 12.0854 18.7041 13.4958C18.6208 14.6027 18.309 15.7546 17.826 16.7393C17.7401 16.9146 17.8124 17.1261 17.9876 17.2119C18.0376 17.2365 18.0907 17.2482 18.1429 17.2482C18.2735 17.2482 18.3989 17.1755 18.4604 17.0504C18.9819 15.9868 19.3186 14.7433 19.4085 13.5487C19.5277 11.9656 18.9477 10.6148 18.4815 9.52938C18.2149 8.90847 17.9845 8.37216 17.9642 7.97061C17.9426 7.54324 18.3083 7.108 18.747 7.03915C19.0015 6.99905 19.8747 7.02743 20.4207 9.07125C20.4711 9.25967 20.6646 9.37155 20.8532 9.32138C21.0417 9.27102 21.1537 9.0773 21.1034 8.88888C20.8553 7.9609 20.4995 7.27005 20.0456 6.83554C19.6316 6.43911 19.131 6.2637 18.6371 6.34115C17.8369 6.46694 17.2184 7.21383 17.2587 8.00631C17.2854 8.53457 17.5388 9.1249 17.8324 9.80825Z" fill="#749EC1"/>
<path d="M21.5227 12.8813C21.5229 11.9372 21.4738 11.0768 21.3768 10.3239C21.3521 10.1303 21.1746 9.99391 20.9815 10.0186C20.7879 10.0435 20.6513 10.2206 20.676 10.4139C20.7692 11.1372 20.8163 11.9672 20.8161 12.8811C20.8157 14.6312 20.4407 16.2036 19.7016 17.5547C19.1107 18.635 18.285 19.5806 17.2478 20.365C16.7938 20.7083 16.3377 20.9907 15.9096 21.2212C16.0722 20.8601 16.1524 20.4456 16.1524 19.9724C16.1524 19.9254 16.1513 19.8756 16.1495 19.8245C16.714 19.4363 17.224 18.9421 17.6672 18.3518C17.7844 18.1957 17.7529 17.9744 17.5969 17.8572C17.4409 17.74 17.2196 17.7715 17.1024 17.9275C16.7924 18.3402 16.4474 18.6995 16.0726 19.0014C15.737 16.5202 14.4371 12.0141 14.057 10.7258C14.6764 10.4932 15.2709 9.98274 15.643 9.2461L16.146 9.51948C16.3154 9.61122 16.5333 9.54676 16.625 9.37757C16.7182 9.20619 16.6547 8.99177 16.4833 8.89857L15.8972 8.58015C15.9669 8.32344 16.0116 8.04786 16.0264 7.75471L16.6074 7.65547C16.7999 7.62269 16.9292 7.44032 16.8964 7.24787C16.8634 7.05561 16.681 6.92652 16.4886 6.95912L15.9763 7.04646C15.7157 5.58491 14.5997 3.74708 14.3186 3.30085C14.3278 3.06373 14.3406 2.49995 14.2884 1.91474C14.1844 0.747997 13.8742 0.127086 13.3403 0.0166737C12.8161 -0.0915416 12.2887 0.327587 11.728 1.29878C11.4922 1.7071 11.3038 2.12019 11.1981 2.36628H8.14064C8.03499 2.12019 7.84657 1.7071 7.61073 1.29878C7.05006 0.327587 6.52272 -0.0917247 5.99849 0.0166737C5.46455 0.127086 5.15437 0.747997 5.05037 1.91474C4.99818 2.49977 5.011 3.06373 5.02034 3.30085C4.73909 3.74708 3.62324 5.58491 3.3625 7.04646L2.85017 6.95912C2.65791 6.92634 2.47536 7.05561 2.44258 7.24787C2.4098 7.44032 2.53908 7.62269 2.73134 7.65547L3.31233 7.75471C3.32716 8.04786 3.37202 8.32344 3.4416 8.58015L2.85548 8.89857C2.6841 8.99177 2.62074 9.20619 2.71376 9.37757C2.80568 9.54676 3.02339 9.6114 3.19276 9.51948L3.69575 9.2461C4.06801 9.98292 4.66255 10.4934 5.28218 10.7258C5.18147 11.0678 5.01448 11.642 4.81892 12.341C4.76637 12.5288 4.87605 12.7238 5.06392 12.7764C5.25178 12.8291 5.44679 12.7192 5.49934 12.5314C5.81648 11.3972 6.058 10.5945 6.06038 10.5864C6.12007 10.3887 5.99116 10.1765 5.78847 10.1376C4.94636 9.97669 4.06691 9.07765 4.01527 7.67121C3.99403 7.09114 4.26942 6.20783 4.81178 5.11708C5.23402 4.2682 5.67 3.59602 5.67439 3.58943C5.71559 3.52607 5.73536 3.45137 5.73097 3.37593C5.7306 3.36915 5.6916 2.67976 5.75404 1.97755C5.84266 0.98402 6.06386 0.724559 6.14168 0.708629C6.21895 0.69215 6.52308 0.829845 6.9955 1.64613C7.33168 2.22694 7.57338 2.84181 7.57576 2.84803C7.62849 2.98353 7.75923 3.0727 7.9048 3.0727H11.4342C11.5797 3.0727 11.7103 2.98353 11.7632 2.84803C11.7656 2.84181 12.0043 2.23317 12.3398 1.65217C12.8142 0.83076 13.1198 0.692516 13.1973 0.708629C13.2747 0.724559 13.4952 0.982738 13.5842 1.97096C13.6474 2.67335 13.6084 3.36915 13.6078 3.37611C13.6036 3.45137 13.6234 3.52626 13.6646 3.58943C13.669 3.59602 14.1049 4.2682 14.5272 5.11726C15.0695 6.20783 15.3449 7.09114 15.3235 7.67121C15.272 9.07765 14.3924 9.97669 13.5503 10.1376C13.3476 10.1765 13.2189 10.3889 13.2784 10.5866C13.3002 10.6586 15.446 17.8072 15.446 19.9724C15.446 20.6968 15.2208 21.2117 14.7374 21.5929C14.3263 21.917 13.7177 22.1508 12.8875 22.303C13.0834 21.5295 13.2572 20.4575 13.4042 19.1168C13.6532 16.8461 13.7417 14.5459 13.7426 14.523C13.7499 14.328 13.5979 14.1639 13.4029 14.1566C13.2094 14.1484 13.044 14.3013 13.0365 14.4963C13.0358 14.5175 12.9537 16.647 12.726 18.8159C12.5928 20.0819 12.4372 21.1117 12.2633 21.8765C12.0117 22.9819 11.7896 23.2335 11.726 23.2852C11.6301 23.2141 11.1674 22.699 10.9002 19.3041C10.7464 17.3493 10.7373 15.4274 10.7373 15.4082C10.7365 15.2135 10.5785 15.0562 10.384 15.0562C10.3837 15.0562 10.3831 15.0562 10.3826 15.0562C10.1876 15.057 10.0301 15.2157 10.0308 15.4107C10.0308 15.4316 10.0405 17.508 10.2121 19.5575C10.3136 20.7713 10.4514 21.7421 10.6219 22.4432C10.6274 22.466 10.6333 22.4888 10.6389 22.5121C10.3359 22.5214 10.0155 22.5262 9.66939 22.5262C9.32332 22.5262 9.00307 22.5214 8.69984 22.5121C8.7057 22.4888 8.71138 22.4658 8.71687 22.4432C8.88734 21.7421 9.0254 20.7713 9.12684 19.5575C9.29823 17.508 9.30794 15.4316 9.30812 15.4107C9.30885 15.2157 9.1512 15.057 8.95619 15.0562C8.95564 15.0562 8.95528 15.0562 8.95473 15.0562C8.76027 15.0562 8.60225 15.2135 8.60152 15.4082C8.60152 15.4274 8.59254 17.3458 8.43892 19.3006C8.17177 22.6989 7.70869 23.2141 7.61275 23.2852C7.56862 23.2493 7.44832 23.1171 7.29487 22.671C7.28883 22.6401 7.27894 22.6104 7.26539 22.5828C7.2057 22.3982 7.14161 22.1671 7.07551 21.8765C6.90156 21.1117 6.74592 20.0819 6.61281 18.8159C6.38502 16.647 6.30299 14.5175 6.30226 14.4963C6.29475 14.3013 6.13069 14.1482 5.93587 14.1566C5.74086 14.1639 5.58888 14.328 5.5962 14.523C5.59712 14.5459 5.68574 16.8461 5.93458 19.1168C6.08162 20.4576 6.25557 21.5295 6.45149 22.303C5.62294 22.1512 5.01521 21.9183 4.60432 21.5953C4.11891 21.2137 3.89277 20.6981 3.89277 19.9724C3.89277 19.0175 4.32014 16.9133 5.12837 13.8873C5.17872 13.6987 5.06685 13.5051 4.87825 13.4548C4.69002 13.4046 4.49629 13.5163 4.44575 13.7049C3.61006 16.8334 3.18635 18.9423 3.18635 19.9724C3.18635 20.9191 3.50734 21.6315 4.16762 22.1506C4.73048 22.593 5.55482 22.8904 6.68275 23.0572C6.88289 23.5769 7.16817 24 7.60853 24C8.02308 24 8.29207 23.6428 8.47481 23.2112C8.84486 23.2255 9.23799 23.2326 9.66939 23.2326C10.1008 23.2326 10.4939 23.2255 10.864 23.2112C11.0467 23.6428 11.3157 24 11.7302 24C12.1708 24 12.4559 23.5769 12.6562 23.0572C13.0675 22.9962 13.4379 22.9177 13.7704 22.8214C13.926 22.7889 21.5209 21.0582 21.5227 12.8813Z" fill="#749EC1"/>
</g>
<defs>
<clipPath id="clip0">
<rect width="24" height="24" fill="white"/>
</clipPath>
</defs>
</svg>
