<svg width="20" height="20" viewBox="0 0 20 20" fill="none" xmlns="http://www.w3.org/2000/svg">
<g clip-path="url(#clip0)">
<path d="M14.7896 11.3669C13.4439 9.74224 11.7431 8.84747 10.0002 8.84747C8.2573 8.84747 6.55641 9.74224 5.21086 11.3669C4.00137 12.8273 3.2793 14.6677 3.2793 16.2902C3.2793 17.0783 3.52023 17.6786 3.99539 18.0745C4.46438 18.4653 5.08355 18.5975 5.77434 18.5974C6.50938 18.5974 7.32555 18.4477 8.12746 18.3006C8.8282 18.1721 9.49008 18.0507 10.0002 18.0507C10.4405 18.0507 11.0614 18.1659 11.7185 18.2879C13.2543 18.5731 14.9951 18.8962 16.0007 18.0601C16.4788 17.6626 16.7211 17.0671 16.7211 16.2902C16.7212 14.6677 15.9991 12.8273 14.7896 11.3669Z" fill="#6A747D" fill-opacity="0.3"/>
<path d="M14.9268 2.54478C14.4345 1.81888 13.7295 1.40259 12.9926 1.40259C12.2556 1.40259 11.5506 1.81892 11.0583 2.54478C10.606 3.21161 10.3569 4.08731 10.3569 5.01059C10.3569 5.93388 10.606 6.80958 11.0583 7.47641C11.5506 8.20227 12.2556 8.6186 12.9926 8.6186C13.7295 8.6186 14.4345 8.20227 14.9268 7.47641C15.3791 6.80958 15.6282 5.93388 15.6282 5.01059C15.6282 4.08731 15.3791 3.21157 14.9268 2.54478Z" fill="#6A747D" fill-opacity="0.3"/>
<path d="M8.94146 2.54471C8.44912 1.81882 7.74416 1.40253 7.00721 1.40253C6.27025 1.40253 5.56525 1.81885 5.07295 2.54471C4.62068 3.21155 4.37158 4.08725 4.37158 5.01054C4.37158 5.93382 4.62064 6.80952 5.07295 7.47636C5.56529 8.20225 6.27025 8.61858 7.00721 8.61858C7.74416 8.61858 8.44912 8.20225 8.94146 7.47636C9.39373 6.80952 9.64283 5.93386 9.64283 5.01054C9.64279 4.08725 9.39373 3.21151 8.94146 2.54471Z" fill="#6A747D" fill-opacity="0.3"/>
<path d="M19.8836 8.20833C19.6851 7.53317 19.2597 7.04259 18.6857 6.827C18.2238 6.65353 17.7025 6.68294 17.2176 6.90985C16.5495 7.22251 16.0033 7.86814 15.7193 8.68114C15.4873 9.34552 15.4583 10.0477 15.6379 10.6586C15.8364 11.3337 16.2618 11.8243 16.8358 12.0399C17.0344 12.1145 17.244 12.1516 17.457 12.1516C17.7393 12.1516 18.0275 12.0864 18.3039 11.957C18.9721 11.6444 19.5182 10.9988 19.8022 10.1858V10.1858C20.0342 9.52142 20.0632 8.81915 19.8836 8.20833Z" fill="#6A747D" fill-opacity="0.3"/>
<path d="M4.28071 8.68109C3.99669 7.86808 3.45056 7.22249 2.78243 6.90984C2.29755 6.68292 1.77614 6.65355 1.31431 6.82699C0.740323 7.04261 0.314893 7.5332 0.116416 8.20831C-0.063154 8.81913 -0.0342087 9.5214 0.197862 10.1857V10.1858C0.481924 10.9988 1.02802 11.6444 1.69614 11.957C1.97255 12.0864 2.26079 12.1516 2.5431 12.1516C2.75606 12.1516 2.96567 12.1144 3.16427 12.0399C3.73833 11.8242 4.16372 11.3337 4.3622 10.6585C4.54169 10.0478 4.51274 9.3455 4.28071 8.68109Z" fill="#6A747D" fill-opacity="0.3"/>
</g>
<defs>
<clipPath id="clip0">
<rect width="20" height="20" fill="white"/>
</clipPath>
</defs>
</svg>
