<svg width="24" height="24" viewBox="0 0 24 24" fill="none" xmlns="http://www.w3.org/2000/svg">
<g clip-path="url(#clip0)">
<path d="M8.27887 16.4334C8.28418 16.4334 8.28931 16.4332 8.29443 16.433C8.48907 16.4246 8.64014 16.26 8.63171 16.0653C8.58704 15.0326 8.53192 14.378 8.46344 14.0641C8.33417 13.4713 7.70081 12.4876 6.52747 11.0572C5.68518 10.0305 4.86597 9.14905 4.85773 9.14008C4.7821 9.05896 4.67242 9.01795 4.56183 9.02985C3.43646 9.1507 2.53394 8.92273 1.87933 8.35236C1.4018 7.93616 1.11816 7.39215 0.949708 6.90564C1.38275 6.70093 1.67389 6.26788 1.68488 5.76837L4.09821 5.20422C4.21668 5.17658 4.31244 5.08997 4.35181 4.97498C4.35785 4.95703 4.98425 3.1875 6.80469 3.1875C7.39337 3.1875 8.00934 3.23529 8.5257 3.58264C9.15173 4.0036 9.55383 4.80029 9.75488 6.01831C9.90649 6.93768 10.3337 8.16889 11.5072 8.81177C12.1825 9.18201 12.804 9.18329 12.8889 9.18146H13.454C13.6486 9.18146 13.8066 9.02362 13.8066 8.82861C13.8066 8.63379 13.6486 8.47595 13.454 8.47595H12.8847C12.8818 8.47595 12.8766 8.47595 12.8735 8.47614C12.7926 8.4787 10.8791 8.49811 10.4509 5.90332C10.2165 4.48315 9.7157 3.53247 8.91956 2.99725C8.24609 2.54425 7.50507 2.48181 6.80469 2.48181C5.84265 2.48181 4.99689 2.87457 4.35858 3.6178C4.04657 3.98126 3.85651 4.34546 3.76074 4.55841L0.272401 5.37415C0.109437 5.41223 -0.00427145 5.55963 0.000123085 5.72699C0.00213724 5.80719 0.0675059 7.7049 1.41095 8.88007C2.18366 9.55591 3.20813 9.84741 4.45819 9.74817C4.71124 10.0252 5.33929 10.7216 5.98181 11.5047C7.40546 13.2402 7.71582 13.9475 7.77405 14.2147C7.81451 14.4003 7.87402 14.8773 7.92676 16.0959C7.935 16.2852 8.09119 16.4334 8.27887 16.4334Z" fill="#749EC1"/>
<path d="M14.8651 9.1815H19.2517C19.5557 9.1815 19.8382 9.19871 20.0916 9.23258C20.2154 9.24943 20.3417 9.19706 20.4179 9.09818C21.2922 7.96293 22.1618 6.17051 21.3409 4.07853C21.2697 3.89707 21.065 3.80754 20.8837 3.87895C20.7023 3.94999 20.6129 4.1547 20.6841 4.33616C21.3483 6.0286 20.697 7.51505 19.9772 8.50932C19.7501 8.48734 19.507 8.47599 19.2517 8.47599H14.8651C14.6702 8.47599 14.5122 8.63401 14.5122 8.82884C14.5122 9.02366 14.6702 9.1815 14.8651 9.1815Z" fill="#749EC1"/>
<path d="M23.5474 3.03515C22.9484 1.72833 22.0347 0.909664 20.8317 0.601498C19.8036 0.338375 18.7716 0.515438 18.087 0.710079C17.8336 0.782223 17.6629 1.01843 17.6739 1.28155C17.6845 1.54174 17.8696 1.76147 18.1238 1.81732C18.6524 1.93341 19.4178 2.26135 20.0621 3.16351C20.1755 3.32208 20.3958 3.35888 20.5543 3.24554C20.7129 3.13238 20.7495 2.91192 20.6364 2.75335C20.0398 1.91821 19.3471 1.49029 18.7636 1.2724C19.3145 1.16418 19.9927 1.11511 20.6567 1.28521C21.6434 1.53772 22.4002 2.22546 22.9061 3.32922C23.4886 4.60015 23.7017 6.65039 21.4085 9.19903C21.2699 9.35321 21.297 9.60131 21.4655 9.72198C22.1316 10.199 22.4553 11.0231 22.4553 12.2417C22.4553 14.8751 21.5241 16.8594 21.5149 16.8788C21.492 16.9263 21.4803 16.9784 21.4803 17.0312V21.9717C21.4803 22.4652 21.0789 22.8666 20.5855 22.8666C20.092 22.8666 19.6906 22.4652 19.6906 21.9717V19.0673C19.6906 18.9221 19.6016 18.7917 19.4665 18.7388C18.3278 18.2933 17.8456 16.7032 17.8411 16.6877C17.7969 16.5373 17.6591 16.4341 17.5023 16.4341H10.836C10.6412 16.4341 10.4832 16.5919 10.4832 16.7867V21.9981C10.4832 22.4771 10.0937 22.8666 9.61469 22.8666C9.13861 22.8666 8.74897 22.4793 8.74622 22.0032C8.73944 20.8213 8.72278 19.0831 8.68103 17.5146C8.67572 17.3198 8.51331 17.1658 8.31903 17.1713C8.12421 17.1764 7.97058 17.3384 7.97571 17.5333C8.01728 19.0957 8.03394 20.8286 8.04071 22.0073C8.04566 22.8702 8.75171 23.5721 9.61487 23.5721C10.4828 23.5721 11.1888 22.866 11.1888 21.9981V17.1396H17.2517C17.4456 17.6475 17.9738 18.7778 18.9851 19.2949V21.9717C18.9851 22.8541 19.7031 23.5721 20.5856 23.5721C21.468 23.5721 22.1858 22.8541 22.1858 21.9717V17.1081C22.366 16.7047 23.161 14.7797 23.161 12.2415C23.161 11.503 23.048 10.8655 22.8254 10.3467C22.6661 9.97558 22.4476 9.65661 22.1737 9.39477C22.8673 8.57153 23.3712 7.72595 23.6735 6.87725C24.148 5.54534 24.1055 4.2528 23.5474 3.03515Z" fill="#749EC1"/>
<path d="M8.53278 5.15423C8.51026 5.96301 8.26453 6.76849 8.03656 6.78057C8.03418 6.78057 8.03162 6.78076 8.02906 6.78076C7.75165 6.78076 7.34735 5.97729 7.16773 5.24871C7.1214 5.05938 6.93061 4.94329 6.74109 4.98998C6.55194 5.03631 6.43604 5.22729 6.48236 5.41644C6.56806 5.76598 7.0401 7.48626 8.02832 7.48626C8.04334 7.48626 8.05854 7.4859 8.07373 7.48516C9.12494 7.42987 9.22803 5.54955 9.2381 5.17327C9.24323 4.97863 9.0896 4.81658 8.89496 4.81127C8.69904 4.80413 8.53809 4.95959 8.53278 5.15423Z" fill="#749EC1"/>
<path d="M4.73291 5.83563C4.73291 6.27838 5.01764 6.62518 5.38129 6.62518C5.74493 6.62518 6.02984 6.27838 6.02984 5.83563C6.02984 5.39288 5.74493 5.04626 5.38129 5.04626C5.01782 5.04626 4.73291 5.39288 4.73291 5.83563Z" fill="#749EC1"/>
</g>
<defs>
<clipPath id="clip0">
<rect width="24" height="24" fill="white"/>
</clipPath>
</defs>
</svg>
