<svg width="14" height="21" viewBox="0 0 14 21" fill="none" xmlns="http://www.w3.org/2000/svg">
<path d="M3.44911 17.251L3.44786 17.251L3.44467 17.251H3.44407V17.001L3.44911 17.251ZM3.44911 17.251L5.69307 17.2398V19.3822C5.69307 19.6519 5.80239 19.9095 5.99532 20.0986L6.17033 19.9201L5.99532 20.0986C6.18809 20.2875 6.44848 20.3928 6.71898 20.3928C6.98948 20.3928 7.24988 20.2875 7.44264 20.0986L7.26764 19.9201L7.44264 20.0986C7.63557 19.9095 7.7449 19.6519 7.7449 19.3822V17.2295L9.99828 17.2183L3.44911 17.251ZM9.98886 15.1971L9.99011 15.1971L9.9933 15.1971C9.99344 15.1971 9.99359 15.1971 9.99373 15.1971H9.9939V15.4471C10.1997 15.4466 10.3972 15.5263 10.5431 15.6686C10.689 15.8109 10.7712 16.0041 10.7717 16.2059C10.7722 16.4076 10.6909 16.6012 10.5458 16.7442C10.4006 16.8872 10.2035 16.9678 9.99768 16.9683L9.98886 15.1971ZM9.98886 15.1971L7.7449 15.2083V12.7637C9.00322 12.5521 10.1666 11.9635 11.0733 11.0755C12.0769 10.098 12.7134 8.81508 12.8777 7.43588C13.042 6.0565 12.724 4.66365 11.9765 3.48509C11.2291 2.30663 10.0967 1.41251 8.76519 0.947705C7.43373 0.482922 5.98101 0.474542 4.64409 0.923916C3.3071 1.37331 2.16407 2.25428 1.40256 3.42399C0.640979 4.59381 0.306337 5.98287 0.454047 7.36406C0.601754 8.74521 1.22291 10.0356 2.21488 11.0246C3.15463 11.9616 4.37452 12.5757 5.69307 12.7803V15.2186L3.43968 15.2298L3.44028 15.4798L3.43903 15.2298H3.43911C3.16882 15.2306 2.90891 15.3365 2.71674 15.5258L2.89218 15.7039L9.98886 15.1971ZM3.7135 3.86077C4.29754 3.28827 5.04224 2.89784 5.85371 2.7396C6.66524 2.58135 7.50636 2.66259 8.27052 2.97284C9.03463 3.28307 9.68692 3.80812 10.1455 4.48082C10.604 5.15347 10.8484 5.94374 10.8484 6.75174C10.8484 7.55974 10.604 8.35002 10.1455 9.02266C9.68692 9.69536 9.03463 10.2204 8.27052 10.5306C7.50636 10.8409 6.66524 10.9221 5.85371 10.7639C5.04231 10.6057 4.29766 10.2153 3.71364 9.64286C2.93184 8.87454 2.49373 7.83473 2.49373 6.75174C2.49373 5.66882 2.93179 4.62907 3.7135 3.86077Z" fill="#CEE1F2" stroke="#CEE1F2" stroke-width="0.5"/>
</svg>
