<svg width="21" height="20" viewBox="0 0 21 20" fill="none" xmlns="http://www.w3.org/2000/svg">
<path d="M13.886 1.14126C13.7646 1.14405 13.645 1.16956 13.5339 1.21633C13.4229 1.26311 13.3226 1.33023 13.2389 1.41386C13.1552 1.49749 13.0896 1.59599 13.0459 1.70374C13.0022 1.81148 12.9813 1.92635 12.9843 2.04179C12.9856 2.15768 13.0114 2.27214 13.06 2.37841C13.1086 2.48469 13.1792 2.58062 13.2674 2.66056C13.3557 2.7405 13.4599 2.80281 13.5739 2.84383C13.6879 2.88486 13.8094 2.90375 13.9312 2.8994L16.7464 2.83422L12.4809 6.8497C11.0463 5.79909 9.24506 5.30683 7.4427 5.47282C5.64033 5.63881 3.97191 6.45062 2.77605 7.74348C1.58019 9.03634 0.94648 10.7134 1.00354 12.4343C1.06061 14.1551 1.80417 15.7909 3.08331 17.0096C4.36246 18.2282 6.08135 18.9385 7.89114 18.9962C9.70092 19.0539 11.466 18.4547 12.8281 17.3203C14.1903 16.1858 15.0474 14.6011 15.2256 12.8877C15.4038 11.1744 14.8897 9.46072 13.7876 8.09458L18.0714 4.06177L18.0023 6.77008C17.9993 6.88552 18.0203 7.00039 18.0639 7.10814C18.1076 7.21588 18.1732 7.31438 18.257 7.39801C18.3407 7.48164 18.441 7.54876 18.552 7.59554C18.663 7.64231 18.7827 7.66782 18.9041 7.67062C18.9118 7.67083 18.9194 7.67083 18.9271 7.67083C19.1684 7.67072 19.4 7.58095 19.5727 7.42068C19.7453 7.26041 19.8452 7.04234 19.851 6.81301L20 1L13.886 1.14126ZM11.8708 15.7647C11.1326 16.4665 10.1922 16.9445 9.16838 17.1381C8.14456 17.3317 7.08335 17.2324 6.11893 16.8525C5.15451 16.4727 4.33021 15.8295 3.75027 15.0043C3.17032 14.179 2.86077 13.2088 2.86077 12.2162C2.86077 11.2237 3.17032 10.2535 3.75027 9.4282C4.33021 8.60295 5.15451 7.95974 6.11893 7.57991C7.08335 7.20009 8.14456 7.10071 9.16838 7.29435C10.1922 7.48798 11.1326 7.96593 11.8708 8.66776C12.3649 9.13157 12.7573 9.68407 13.0251 10.2932C13.2929 10.9024 13.4308 11.556 13.4308 12.2162C13.4308 12.8765 13.2929 13.5301 13.0251 14.1392C12.7573 14.7484 12.3649 15.3009 11.8708 15.7647Z" fill="#CEE1F2" stroke="#CEE1F2" stroke-width="0.5"/>
</svg>
