<svg width="20" height="20" viewBox="0 0 20 20" fill="none" xmlns="http://www.w3.org/2000/svg">
<g clip-path="url(#clip0)">
<path d="M9.16643 19.1536C4.11242 19.1536 0 15.0414 0 9.98735C0 4.93334 4.11242 0.820923 9.16643 0.820923C10.9239 0.820923 12.6337 1.3217 14.1112 2.27C14.4013 2.45677 14.4862 2.84341 14.2995 3.13424C14.1121 3.42506 13.7262 3.50913 13.4354 3.32252C12.1604 2.5033 10.6839 2.07088 9.16643 2.07088C4.80149 2.07088 1.24996 5.62241 1.24996 9.98735C1.24996 14.3521 4.80149 17.9037 9.16643 17.9037C13.5312 17.9037 17.0828 14.3521 17.0828 9.98735C17.0828 9.72644 17.0702 9.46811 17.0461 9.21406C17.0129 8.86983 17.2645 8.56482 17.6078 8.53156C17.9528 8.49982 18.2569 8.7499 18.2903 9.09322C18.3185 9.3874 18.3327 9.6857 18.3327 9.98735C18.3327 15.0414 14.2204 19.1536 9.16643 19.1536Z" fill="#749EC1"/>
<path d="M10.2081 12.0705C10.0481 12.0705 9.88809 12.0096 9.76648 11.8873L6.0166 8.13737C5.77246 7.89308 5.77246 7.49728 6.0166 7.25315C6.26073 7.00902 6.65653 7.00902 6.90066 7.25315L10.209 10.5615L18.9328 1.83752C19.177 1.59339 19.5728 1.59339 19.817 1.83752C20.0611 2.08165 20.0611 2.47745 19.817 2.72159L10.6505 11.888C10.528 12.0096 10.3681 12.0705 10.2081 12.0705Z" fill="#749EC1"/>
</g>
<defs>
<clipPath id="clip0">
<rect width="20" height="20" fill="white"/>
</clipPath>
</defs>
</svg>
