<svg width="14" height="21" viewBox="0 0 14 21" fill="none" xmlns="http://www.w3.org/2000/svg">
<path d="M11.2287 11.0538C12.1919 10.1158 12.8021 8.88532 12.9595 7.56341C13.117 6.24151 12.8124 4.90635 12.0955 3.77609C11.3786 2.64584 10.2919 1.78733 9.01288 1.34084C7.73384 0.894358 6.33813 0.886303 5.05382 1.31799C3.76951 1.74968 2.67254 2.59559 1.94215 3.71749C1.21176 4.83939 0.891153 6.17095 1.03271 7.49458C1.17426 8.81821 1.76961 10.0556 2.72147 11.0047C3.67333 11.9537 4.92542 12.5582 6.27314 12.7195V15.6244L3.77036 15.6369C3.56457 15.6374 3.36742 15.718 3.22226 15.861C3.0771 16.004 2.99583 16.1976 2.99634 16.3994C2.99684 16.6011 3.07907 16.7943 3.22494 16.9366C3.3708 17.0789 3.56836 17.1586 3.77415 17.1581H3.77794L6.27314 17.1456V19.5393C6.27314 19.7411 6.35489 19.9345 6.5004 20.0772C6.64592 20.2198 6.84327 20.2999 7.04906 20.2999C7.25485 20.2999 7.4522 20.2198 7.59772 20.0772C7.74323 19.9345 7.82498 19.7411 7.82498 19.5393V17.1379L10.3278 17.1254C10.5335 17.1249 10.7307 17.0443 10.8759 16.9013C11.021 16.7583 11.1023 16.5647 11.1018 16.363C11.1013 16.1612 11.0191 15.968 10.8732 15.8257C10.7273 15.6834 10.5298 15.6037 10.324 15.6042H10.3202L7.82498 15.6167V12.7056C9.11337 12.5349 10.3091 11.9546 11.2287 11.0538ZM3.86849 3.83942C4.48781 3.23231 5.27689 2.81884 6.13594 2.65133C6.99499 2.48381 7.88542 2.56976 8.69464 2.89831C9.50386 3.22686 10.1955 3.78325 10.6821 4.49712C11.1687 5.21099 11.4285 6.05028 11.4285 6.90885C11.4285 7.76742 11.1687 8.60671 10.6821 9.32058C10.1955 10.0344 9.50386 10.5908 8.69464 10.9194C7.88542 11.2479 6.99499 11.3339 6.13594 11.1664C5.27689 10.9988 4.48781 10.5854 3.86849 9.97827C3.0394 9.16348 2.57381 8.05965 2.57381 6.90885C2.57381 5.75804 3.0394 4.65421 3.86849 3.83942Z" fill="#CEE1F2" stroke="#CEE1F2" stroke-width="0.5"/>
</svg>
