<svg width="234" height="56" viewBox="0 0 234 56" fill="none" xmlns="http://www.w3.org/2000/svg">
<path d="M69.9485 8.90426H72.9225V21.1285H80.0192V24H69.9485V8.90426ZM85.7544 18.4211C85.7544 18.8997 85.898 19.3578 86.1851 19.7953C86.4723 20.2329 86.8483 20.5884 87.3132 20.8619C87.7918 21.1354 88.3114 21.2721 88.872 21.2721C89.4873 21.2721 90.0343 21.1354 90.5129 20.8619C90.9914 20.5884 91.3675 20.2329 91.6409 19.7953C91.9281 19.3578 92.0717 18.8997 92.0717 18.4211V8.90426H95.0047V18.4827C95.0047 19.5902 94.7312 20.5747 94.1842 21.4362C93.6373 22.284 92.8989 22.954 91.9691 23.4462C91.0393 23.9248 90.0069 24.1641 88.872 24.1641C87.7508 24.1641 86.7252 23.9248 85.7954 23.4462C84.8793 22.954 84.1478 22.284 83.6008 21.4362C83.0539 20.5747 82.7804 19.5902 82.7804 18.4827V8.90426H85.7544V18.4211ZM112.108 24.6153L101.545 15.0779L101.606 24H98.5911V8.30946H98.7142L109.257 17.9904L109.195 8.90426H112.19V24.6153H112.108ZM114.375 24L121.184 8.30946H121.348L128.158 24H124.712L123.543 21.0465H118.538L117.308 24H114.375ZM119.584 18.5442H122.558L121.102 14.8728L119.584 18.5442ZM145.089 12.5551C144.515 12.2406 143.927 11.9808 143.325 11.7757C142.737 11.5706 142.183 11.4681 141.664 11.4681C141.021 11.4681 140.515 11.598 140.146 11.8578C139.777 12.1176 139.592 12.5073 139.592 13.0269C139.592 13.3824 139.729 13.7037 140.002 13.9909C140.289 14.2643 140.652 14.5105 141.089 14.7292C141.541 14.948 142.006 15.1463 142.484 15.3241C143.072 15.5428 143.64 15.8231 144.186 16.165C144.733 16.4932 145.185 16.9512 145.54 17.5392C145.896 18.1135 146.073 18.8792 146.073 19.8364C146.073 20.6021 145.875 21.3131 145.479 21.9695C145.082 22.6258 144.501 23.1591 143.735 23.5693C142.97 23.9658 142.026 24.1641 140.905 24.1641C140.043 24.1641 139.161 24.0342 138.259 23.7744C137.37 23.5146 136.529 23.1044 135.736 22.5438L137.049 20.2261C137.568 20.6089 138.163 20.9234 138.833 21.1695C139.503 21.4157 140.105 21.5387 140.638 21.5387C140.994 21.5387 141.349 21.4909 141.705 21.3952C142.074 21.2858 142.375 21.108 142.607 20.8619C142.853 20.6158 142.976 20.2739 142.976 19.8364C142.976 19.3851 142.758 18.9954 142.32 18.6673C141.896 18.3254 141.383 18.0383 140.782 17.8058C140.317 17.6281 139.838 17.423 139.346 17.1905C138.854 16.9581 138.389 16.6777 137.951 16.3496C137.527 16.0077 137.179 15.5907 136.905 15.0984C136.645 14.5925 136.516 13.9772 136.516 13.2525C136.516 12.3774 136.707 11.6185 137.09 10.9758C137.486 10.3332 138.04 9.82723 138.751 9.45805C139.462 9.07518 140.283 8.86324 141.212 8.82222C142.429 8.82222 143.414 8.96579 144.166 9.25294C144.932 9.54009 145.615 9.88193 146.217 10.2785L145.089 12.5551ZM148.986 8.90426H151.96V24H148.986V8.90426ZM160.287 8.90426C161.859 8.90426 163.11 9.22559 164.04 9.86826C164.97 10.4972 165.435 11.4407 165.435 12.6987C165.435 13.4644 165.271 14.1276 164.942 14.6882C164.628 15.2488 164.19 15.7001 163.63 16.0419C164.409 16.4111 165.025 16.8965 165.476 17.4982C165.927 18.0861 166.153 18.7698 166.153 19.5492C166.153 20.3696 166.002 21.067 165.701 21.6413C165.414 22.2019 165.018 22.66 164.512 23.0155C164.019 23.3573 163.459 23.6103 162.83 23.7744C162.201 23.9248 161.551 24 160.881 24H155.856V8.90426H160.287ZM160.635 15.0779C161.223 15.0779 161.654 14.9002 161.927 14.5447C162.215 14.1891 162.358 13.7858 162.358 13.3345C162.358 12.8149 162.18 12.4252 161.825 12.1654C161.483 11.9056 161.018 11.7757 160.43 11.7757H158.83V15.0779H160.635ZM160.738 21.2311C161.394 21.2311 161.948 21.1012 162.399 20.8414C162.85 20.5679 163.076 20.1372 163.076 19.5492C163.076 19.1117 162.953 18.7835 162.707 18.5647C162.461 18.3323 162.139 18.175 161.743 18.093C161.36 17.9973 160.957 17.9494 160.533 17.9494H158.83V21.2311H160.738ZM169.136 8.90426H179.432V11.7757H172.11V14.9959H178.591V17.8674H172.11V21.1285H179.719V24H169.136V8.90426ZM187.37 8.90426C189.271 8.90426 190.727 9.36917 191.739 10.299C192.764 11.2151 193.277 12.4457 193.277 13.9909C193.277 14.8523 193.093 15.7001 192.723 16.5342C192.368 17.3683 191.759 18.0314 190.898 18.5237L194.405 24H190.939L187.76 19.2005H185.77V24H182.796V8.90426H187.37ZM187.883 16.3291C188.485 16.3291 188.95 16.206 189.278 15.9599C189.62 15.7001 189.859 15.3993 189.996 15.0574C190.132 14.7019 190.201 14.3806 190.201 14.0934C190.201 13.9293 190.173 13.7242 190.119 13.4781C190.078 13.2183 189.982 12.9585 189.831 12.6987C189.681 12.4389 189.449 12.2201 189.134 12.0424C188.833 11.8646 188.423 11.7757 187.904 11.7757H185.77V16.3291H187.883ZM196.857 8.90426H199.831V24H196.857V8.90426ZM202.025 24L208.835 8.30946H208.999L215.808 24H212.362L211.193 21.0465H206.189L204.958 24H202.025ZM207.235 18.5442H210.209L208.753 14.8728L207.235 18.5442ZM231.525 24.6153L220.962 15.0779L221.024 24H218.009V8.30946H218.132L228.674 17.9904L228.613 8.90426H231.607V24.6153H231.525ZM82.6445 31.9043V47H79.6705V40.8674H72.9225V47H69.9485V31.9043H72.9225V37.9959H79.6705V31.9043H82.6445ZM89.1995 41.4211C89.1995 41.8997 89.3431 42.3578 89.6303 42.7953C89.9174 43.2329 90.2934 43.5884 90.7583 43.8619C91.2369 44.1354 91.7565 44.2721 92.3171 44.2721C92.9325 44.2721 93.4794 44.1354 93.958 43.8619C94.4366 43.5884 94.8126 43.2329 95.0861 42.7953C95.3732 42.3578 95.5168 41.8997 95.5168 41.4211V31.9043H98.4498V41.4827C98.4498 42.5902 98.1763 43.5747 97.6294 44.4362C97.0824 45.284 96.344 45.954 95.4142 46.4462C94.4844 46.9248 93.4521 47.1641 92.3171 47.1641C91.1959 47.1641 90.1704 46.9248 89.2406 46.4462C88.3244 45.954 87.5929 45.284 87.0459 44.4362C86.499 43.5747 86.2255 42.5902 86.2255 41.4827V31.9043H89.1995V41.4211ZM110.097 35.5551C109.523 35.2406 108.935 34.9808 108.333 34.7757C107.745 34.5706 107.191 34.4681 106.672 34.4681C106.029 34.4681 105.523 34.598 105.154 34.8578C104.785 35.1176 104.6 35.5073 104.6 36.0269C104.6 36.3824 104.737 36.7037 105.01 36.9909C105.297 37.2643 105.66 37.5105 106.097 37.7292C106.549 37.948 107.013 38.1463 107.492 38.3241C108.08 38.5428 108.647 38.8231 109.194 39.165C109.741 39.4932 110.193 39.9512 110.548 40.5392C110.904 41.1135 111.081 41.8792 111.081 42.8364C111.081 43.6021 110.883 44.3131 110.487 44.9695C110.09 45.6258 109.509 46.1591 108.743 46.5693C107.977 46.9658 107.034 47.1641 105.913 47.1641C105.051 47.1641 104.169 47.0342 103.267 46.7744C102.378 46.5146 101.537 46.1044 100.744 45.5438L102.057 43.2261C102.576 43.6089 103.171 43.9234 103.841 44.1695C104.511 44.4157 105.113 44.5387 105.646 44.5387C106.002 44.5387 106.357 44.4909 106.713 44.3952C107.082 44.2858 107.383 44.108 107.615 43.8619C107.861 43.6158 107.984 43.2739 107.984 42.8364C107.984 42.3851 107.766 41.9954 107.328 41.6673C106.904 41.3254 106.391 41.0383 105.79 40.8058C105.325 40.6281 104.846 40.423 104.354 40.1905C103.862 39.9581 103.397 39.6777 102.959 39.3496C102.535 39.0077 102.187 38.5907 101.913 38.0984C101.653 37.5925 101.523 36.9772 101.523 36.2525C101.523 35.3774 101.715 34.6185 102.098 33.9758C102.494 33.3332 103.048 32.8272 103.759 32.458C104.47 32.0752 105.291 31.8632 106.22 31.8222C107.437 31.8222 108.422 31.9658 109.174 32.2529C109.94 32.5401 110.623 32.8819 111.225 33.2785L110.097 35.5551ZM117.009 37.278L116.927 38.0369L117.378 37.4626L122.301 31.9043H126.157L119.922 38.6727L126.177 47H122.403L117.747 40.5597L117.009 41.2981V47H113.994V31.9043H117.009V37.278ZM132.353 42.3031L126.795 31.9043H130.466L133.932 38.8778L137.317 31.9043H140.988L135.327 42.3031V47H132.353V42.3031ZM154.481 31.9043C156.382 31.9043 157.838 32.3692 158.85 33.299C159.876 34.2151 160.388 35.4457 160.388 36.9909C160.388 37.8523 160.204 38.7001 159.835 39.5342C159.479 40.3683 158.871 41.0314 158.009 41.5237L161.516 47H158.05L154.871 42.2005H152.881V47H149.907V31.9043H154.481ZM154.994 39.3291C155.596 39.3291 156.061 39.206 156.389 38.9599C156.731 38.7001 156.97 38.3993 157.107 38.0574C157.243 37.7019 157.312 37.3806 157.312 37.0934C157.312 36.9293 157.284 36.7242 157.23 36.4781C157.189 36.2183 157.093 35.9585 156.943 35.6987C156.792 35.4389 156.56 35.2201 156.245 35.0424C155.944 34.8646 155.534 34.7757 155.015 34.7757H152.881V39.3291H154.994ZM163.968 31.9043H174.265V34.7757H166.942V37.9959H173.424V40.8674H166.942V44.1285H174.552V47H163.968V31.9043ZM185.689 35.5551C185.115 35.2406 184.527 34.9808 183.925 34.7757C183.337 34.5706 182.784 34.4681 182.264 34.4681C181.621 34.4681 181.115 34.598 180.746 34.8578C180.377 35.1176 180.193 35.5073 180.193 36.0269C180.193 36.3824 180.329 36.7037 180.603 36.9909C180.89 37.2643 181.252 37.5105 181.69 37.7292C182.141 37.948 182.606 38.1463 183.084 38.3241C183.672 38.5428 184.24 38.8231 184.787 39.165C185.334 39.4932 185.785 39.9512 186.141 40.5392C186.496 41.1135 186.674 41.8792 186.674 42.8364C186.674 43.6021 186.476 44.3131 186.079 44.9695C185.682 45.6258 185.101 46.1591 184.336 46.5693C183.57 46.9658 182.626 47.1641 181.505 47.1641C180.644 47.1641 179.762 47.0342 178.859 46.7744C177.971 46.5146 177.13 46.1044 176.337 45.5438L177.649 43.2261C178.169 43.6089 178.764 43.9234 179.434 44.1695C180.104 44.4157 180.705 44.5387 181.239 44.5387C181.594 44.5387 181.95 44.4909 182.305 44.3952C182.674 44.2858 182.975 44.108 183.208 43.8619C183.454 43.6158 183.577 43.2739 183.577 42.8364C183.577 42.3851 183.358 41.9954 182.92 41.6673C182.497 41.3254 181.984 41.0383 181.382 40.8058C180.917 40.6281 180.439 40.423 179.946 40.1905C179.454 39.9581 178.989 39.6777 178.552 39.3496C178.128 39.0077 177.779 38.5907 177.506 38.0984C177.246 37.5925 177.116 36.9772 177.116 36.2525C177.116 35.3774 177.307 34.6185 177.69 33.9758C178.087 33.3332 178.641 32.8272 179.352 32.458C180.063 32.0752 180.883 31.8632 181.813 31.8222C183.03 31.8222 184.014 31.9658 184.766 32.2529C185.532 32.5401 186.216 32.8819 186.817 33.2785L185.689 35.5551ZM200.908 45.7489C200.744 45.8856 200.437 46.0702 199.985 46.3026C199.548 46.5351 199.008 46.7402 198.365 46.918C197.722 47.0957 197.011 47.1778 196.232 47.1641C195.042 47.1367 193.976 46.9248 193.032 46.5283C192.102 46.118 191.309 45.5643 190.653 44.8669C190.01 44.1695 189.518 43.3696 189.176 42.4672C188.834 41.5647 188.664 40.6007 188.664 39.5752C188.664 38.0437 188.971 36.69 189.586 35.5141C190.202 34.3382 191.056 33.4152 192.15 32.7452C193.258 32.0752 194.543 31.7402 196.006 31.7402C197.018 31.7402 197.914 31.8769 198.693 32.1504C199.473 32.4239 200.108 32.7178 200.601 33.0323L199.432 35.8423C199.09 35.5825 198.632 35.3158 198.057 35.0424C197.497 34.7552 196.847 34.6116 196.109 34.6116C195.343 34.6116 194.625 34.8236 193.955 35.2475C193.299 35.6714 192.766 36.2457 192.355 36.9704C191.959 37.6814 191.761 38.495 191.761 39.4111C191.761 40.3819 191.945 41.2365 192.314 41.9749C192.684 42.6996 193.21 43.2671 193.894 43.6773C194.577 44.0875 195.377 44.2926 196.293 44.2926C197.1 44.2926 197.791 44.1627 198.365 43.9029C198.939 43.6431 199.377 43.3696 199.678 43.0825L200.908 45.7489ZM206.554 41.4211C206.554 41.8997 206.698 42.3578 206.985 42.7953C207.272 43.2329 207.648 43.5884 208.113 43.8619C208.591 44.1354 209.111 44.2721 209.672 44.2721C210.287 44.2721 210.834 44.1354 211.313 43.8619C211.791 43.5884 212.167 43.2329 212.441 42.7953C212.728 42.3578 212.871 41.8997 212.871 41.4211V31.9043H215.804V41.4827C215.804 42.5902 215.531 43.5747 214.984 44.4362C214.437 45.284 213.699 45.954 212.769 46.4462C211.839 46.9248 210.807 47.1641 209.672 47.1641C208.55 47.1641 207.525 46.9248 206.595 46.4462C205.679 45.954 204.947 45.284 204.401 44.4362C203.854 43.5747 203.58 42.5902 203.58 41.4827V31.9043H206.554V41.4211ZM219.391 31.9043H229.687V34.7757H222.365V37.9959H228.846V40.8674H222.365V44.1285H229.974V47H219.391V31.9043Z" fill="#749EC1"/>
<g clip-path="url(#clip0)">
<path d="M36.9597 49.906C30.5099 49.8579 24.3409 47.3054 19.7974 42.8047C15.2539 38.304 12.7043 32.2201 12.7043 25.8791C12.7043 19.5381 15.2539 13.4542 19.7974 8.9535C24.3409 4.4528 30.5099 1.90023 36.9597 1.85219C37.6069 1.85219 38.2476 1.87702 38.8818 1.92667C35.5685 0.649019 32.0403 -0.0046408 28.4812 -0.000221885C12.752 -0.000221885 0 12.5363 0 27.9998C0 43.4632 12.752 55.9998 28.4812 55.9998C32.6327 56.0035 36.7345 55.1131 40.4984 53.3912C44.2623 51.6693 47.5967 49.1576 50.2673 46.0329C46.3081 48.5669 41.684 49.9128 36.9597 49.906Z" fill="#749EC1"/>
<path d="M28.7142 29.1793C29.9067 28.618 32.9443 28.4524 33.9951 28.7918C33.2305 27.7973 32.4518 27.2152 30.7794 27.5131C28.7142 28 28.7142 29.1793 28.7142 29.1793Z" fill="#749EC1"/>
<path d="M45.8337 29.222C44.6426 28.662 41.6037 28.4964 40.5528 28.8344C41.3174 27.8413 42.0961 27.2592 43.7685 27.5558C45.8337 28.044 45.8337 29.222 45.8337 29.222Z" fill="#749EC1"/>
<path d="M41.7397 43.018C41.1424 43.5457 40.4345 43.9379 39.666 44.167C39.1259 44.3146 37.7341 44.4511 37.4423 43.0552C38.618 42.4263 39.5748 40.6539 39.8554 40.0621C40.2146 39.3049 40.0056 38.1628 39.2942 37.6801C38.5829 37.1973 37.3665 37.5959 37.0789 37.6801C36.7913 37.5987 35.5706 37.2083 34.8635 37.6801C34.1564 38.1518 33.9389 39.3049 34.3023 40.0621C34.5829 40.6539 35.5398 42.4263 36.7155 43.0552C36.4237 44.4511 35.0319 44.3146 34.4917 44.167C33.7204 43.9387 33.0096 43.5464 32.4096 43.018C32.0196 42.5794 31.7306 43.018 31.8807 43.1656C32.0308 43.3132 33.3034 44.4911 34.618 44.6994C35.4149 44.8373 36.5078 44.7187 37.0747 44.0883C37.6359 44.7187 38.7344 44.8359 39.5313 44.6994C40.846 44.4911 42.1171 43.3201 42.2686 43.1656C42.4202 43.0111 42.1297 42.5794 41.7397 43.018Z" fill="#749EC1"/>
<path d="M55.9999 28.5146C54.5829 26.8801 52.0294 24.2387 52.0294 24.2387C51.5552 23.5394 52.6818 21.6732 52.6818 21.6732C52.8558 21.5753 52.3254 17.2428 51.5594 16.7187C51.1876 16.4663 50.4917 19.8084 49.6611 19.9835C46.5745 20.5077 41.4198 14.5035 41.5377 13.1049C41.6569 12.5215 43.673 6.80836 45.7467 6.34629C45.8617 6.32009 49.0438 10.1353 49.0438 10.1353C49.0438 10.1353 46.3991 4.42354 45.3959 4.24836C44.3928 4.07319 39.7039 10.5435 39.8232 12.1173H34.3598C34.4777 10.5435 29.7944 4.07319 28.7856 4.24836C27.7769 4.42354 25.1378 10.1353 25.1378 10.1353C25.1378 10.1353 28.3184 6.32009 28.4349 6.34629C30.5099 6.8125 32.5261 12.5256 32.6439 13.1049C32.7632 14.5035 27.6043 20.5077 24.5205 19.9835C23.6913 19.8084 22.9954 16.4663 22.6236 16.7187C21.8519 17.2428 21.323 21.5753 21.5012 21.6732C21.5012 21.6732 22.6236 23.5394 22.1536 24.2387C22.1536 24.2387 19.5987 26.8732 18.183 28.5146C18.7625 29.1628 19.6534 30.1932 20.2202 31.3628C20.4545 35.0111 21.062 37.6428 20.9863 38.7504C23.102 35.4746 26.2869 39.5187 26.5983 40.0622C26.8453 39.8125 26.8326 36.1559 24.0182 35.2953C24.0182 35.2953 23.4373 28.3766 23.7067 28.2966L25.149 27.5959C25.8505 27.487 26.733 29.4001 26.8537 30.069C26.9337 29.7394 27.6674 21.647 31.3602 21.3794C34.6222 21.207 35.3195 21.7022 36.2539 24.1794C36.7141 26.9215 35.7193 29.7339 35.4121 29.778C35.1048 29.8222 36.3086 29.909 37.1069 28.8594C37.9038 29.909 39.1118 29.8249 38.8004 29.778C38.4889 29.7311 37.4942 26.9215 37.9586 24.1794C38.893 21.6966 39.5903 21.207 42.8523 21.3794C46.545 21.6415 47.2788 29.7339 47.3588 30.069C47.478 29.4001 48.3661 27.487 49.0634 27.5959L50.5057 28.2966C50.7751 28.3766 50.1943 35.2953 50.1943 35.2953C47.3798 36.1559 47.3658 39.8125 47.6127 40.0622C47.9186 39.5187 51.1034 35.4746 53.2248 38.7504C53.1448 37.647 53.7565 35.0111 53.9908 31.3628C54.5282 30.1932 55.4191 29.1628 55.9999 28.5146Z" fill="#749EC1"/>
</g>
<defs>
<clipPath id="clip0">
<rect width="56" height="56" fill="white"/>
</clipPath>
</defs>
</svg>
