<svg width="1920" height="112" viewBox="0 0 1920 112" fill="none" xmlns="http://www.w3.org/2000/svg">
<path d="M1766.4 70.404C1518.14 83.8708 1306.68 69.2818 1212.66 62.5483C1092.62 53.851 774.123 63.39 718.377 67.3179C662.632 71.2457 562.289 80.2236 448.196 76.5763C412.147 75.1735 99.2275 54.4121 0 70.6845V113L1920 112L1921 67.3179C1921 67.3179 1808.76 68.1595 1766.4 70.404Z" fill="#DEE7EE"/>
<path d="M458.252 75.9023C458.076 76.182 457.845 76.4228 457.573 76.6099C457.301 76.7971 456.994 76.9266 456.67 76.9906C456.347 77.0547 456.014 77.0519 455.692 76.9825C455.37 76.913 455.065 76.7784 454.796 76.5868C453.371 75.7312 451.995 74.7866 450.604 73.8489C449.915 73.4555 449.264 72.9971 448.661 72.4799C447.864 71.6996 447.203 70.7824 446.466 69.9405C446.259 69.7633 446.03 69.6138 445.785 69.4956C445.744 69.7352 445.594 70.0363 445.689 70.1801C446.575 71.7721 447.563 73.304 448.648 74.7661C449.288 75.5532 450.386 75.9707 451.279 76.5525C451.064 76.8072 450.795 77.0103 450.492 77.1468C450.188 77.2833 449.858 77.3497 449.526 77.3411C449.194 77.3326 448.868 77.2493 448.572 77.0974C448.276 76.9456 448.018 76.729 447.816 76.4636C446.678 75.1631 445.437 73.9584 444.251 72.7058C443.57 72.0213 443.249 72.2746 442.799 72.9933C441.838 74.5333 440.754 75.9844 439.759 77.5108C438.968 78.736 437.667 79.0303 436.433 79.3931C435.199 79.7559 434.279 78.7086 433.331 78.0652C433.176 77.9565 433.035 77.8302 432.909 77.6888C432.534 77.2713 432.132 76.4704 431.811 76.5046C431.085 76.6808 430.393 76.9793 429.766 77.3876C429.664 77.4355 429.514 77.5313 429.514 77.6066C429.514 78.7634 428.724 78.9003 427.878 78.7086C427.163 78.5987 426.484 78.3221 425.895 77.901C424.531 76.7374 423.352 75.43 421.941 74.0268C421.471 74.4375 420.83 74.944 420.258 75.519C419.372 76.4088 418.567 77.3808 417.647 78.2569C417.388 78.5033 416.863 78.4622 416.461 78.5444C416.461 78.1337 416.372 77.6409 416.563 77.3328C417.449 75.8749 418.41 74.4649 419.372 73.048C419.559 72.7783 419.807 72.5557 420.094 72.3978C420.57 72.1655 420.959 71.7863 421.204 71.3157C421.45 70.8451 421.538 70.308 421.457 69.7831C421.41 69.5709 420.885 69.2423 420.721 69.3108C418.22 70.3512 415.698 71.3642 413.264 72.5826C412.453 72.9796 411.901 73.8694 411.219 74.506C410.538 75.1425 409.672 75.9365 408.84 76.5594C408.281 76.9838 407.886 76.7373 407.906 76.0255C407.927 75.3136 407.831 74.4375 408.881 74.0953C409.29 73.9652 409.563 73.4108 409.87 73.0343C410.919 71.5969 411.914 70.1322 413.659 69.4066C413.9 69.3099 414.118 69.1629 414.298 68.9752C414.477 68.7876 414.615 68.5636 414.702 68.3183C414.995 66.5318 415.132 64.7179 415.336 62.8425C414.416 62.8904 413.489 62.9178 412.562 62.9999C411.067 63.1074 409.583 62.6753 408.377 61.7815C407.438 61.1403 406.302 60.8563 405.173 60.9807C399.55 61.2956 393.919 61.4735 388.296 61.7062C387.117 61.7238 385.94 61.8106 384.772 61.9663C384.497 62.0177 384.235 62.1235 384.001 62.2774C383.767 62.4313 383.565 62.6304 383.409 62.863C382.893 63.8779 382.438 64.9224 382.045 65.9911C381.943 66.2375 381.909 66.5113 381.793 66.7371C380.866 68.5168 380.812 68.7221 382.263 70.0842C383.715 71.4464 385.426 72.8222 387.083 74.0747C387.705 74.4191 388.363 74.6923 389.046 74.8893C389.323 75.0369 389.586 75.2111 389.83 75.4095C389.591 75.6833 389.386 76.1419 389.107 76.1898C388.372 76.3704 387.606 76.3845 386.864 76.2308C385.908 75.8624 384.994 75.392 384.138 74.8277C382.584 73.9242 381.05 72.9864 379.435 72.1719C380.062 74.1432 381.52 75.1973 383.402 75.8202C382.304 77.0522 380.982 76.9906 379.864 75.8202C378.274 74.1957 376.665 72.5985 375.038 71.0288C374.172 70.1801 373.954 70.2074 373.354 71.2752C372.02 73.8553 370.163 76.1263 367.901 77.942C367.636 78.1405 367.363 78.3253 366.995 78.5854C366.77 78.1391 366.716 77.6258 366.841 77.1419C366.967 76.658 367.264 76.2367 367.676 75.9571C368.91 75.0193 369.04 73.6572 369.483 72.3909C369.717 71.7516 369.89 71.0916 370.001 70.4196C370.076 69.9337 370.771 69.2423 369.899 68.9617C369.142 68.7153 368.201 68.5373 367.704 69.5504C367.103 70.6526 366.582 71.7962 366.143 72.9727C366.019 73.4693 365.791 73.9334 365.474 74.3338C365.156 74.7341 364.757 75.0613 364.302 75.2931C363.205 75.8407 363.205 76.2925 364.207 76.9838C364.541 77.2165 364.964 77.326 365.325 77.5313C365.614 77.7111 365.894 77.9053 366.163 78.1132C365.829 78.298 365.482 78.6744 365.175 78.6265C364.37 78.4804 363.582 78.251 362.823 77.942C362.417 77.7389 362.033 77.4934 361.678 77.2096C361.16 78.1474 359.32 78.5786 358.515 77.8941C357.35 76.8742 356.3 75.7243 355.162 74.6702C354.879 74.3897 354.672 74.0412 354.561 73.6579C354.45 73.2745 354.439 72.869 354.528 72.4799C354.496 72.0437 354.399 71.6146 354.242 71.2068C353.86 71.33 353.471 71.419 353.103 71.5696C352.209 71.8834 351.338 72.2632 350.499 72.7058C349.234 73.4485 348.014 74.2667 346.846 75.1562C345.851 75.916 344.985 76.8469 344.01 77.634C343.765 77.8325 343.329 77.7504 342.94 77.7983C342.94 77.3808 342.838 76.8879 343.022 76.5731C343.441 75.947 343.896 75.346 344.385 74.7729C344.937 74.0405 345.421 73.2671 346.001 72.5689C346.351 72.2018 346.742 71.8757 347.166 71.5969C347.452 71.3847 347.759 71.2068 348.059 71.0151L347.936 70.666C347.463 70.7009 347 70.8264 346.573 71.0357C345.312 72.0555 344.147 73.1849 342.92 74.2459C342.054 74.9851 341.147 75.6764 340.193 76.4499C339.607 74.7524 339.791 74.2527 340.875 73.4929C341.302 73.1213 341.682 72.6983 342.006 72.2335C343.07 70.9261 343.949 69.4408 345.667 68.8111C346.023 68.6773 346.327 68.4307 346.533 68.1086C346.738 67.7864 346.833 67.406 346.805 67.0246C346.88 65.4777 347.153 63.9445 347.371 62.2333C347.01 62.1959 346.647 62.1959 346.287 62.2333C345.205 62.4735 344.086 62.4856 342.999 62.2688C341.913 62.052 340.883 61.611 339.975 60.9739C339.599 60.7261 339.163 60.5865 338.714 60.57C328.353 60.4422 317.997 60.3259 307.645 60.2209C305.518 60.0771 303.383 60.0908 301.258 60.262C299.745 60.4742 298.327 61.3777 296.882 62.0074C296.725 62.0759 296.657 62.3839 296.582 62.5892C294.435 68.7495 290.447 72.959 283.904 74.4991C279.044 75.6422 274.102 75.7312 269.16 75.8681C254.014 76.1966 238.861 76.4499 223.716 76.7305C221.889 76.7305 220.055 76.7305 218.263 76.7305C217.712 76.6633 217.174 76.5229 216.661 76.313C214.82 75.7449 214.616 74.3622 214.732 72.6852C214.823 71.1395 214.75 69.5884 214.514 68.0582C214.173 65.9226 213.88 63.8966 214.984 61.8294C215.468 60.9122 215.488 59.776 216.681 59.3516C216.845 59.29 216.899 58.8999 216.988 58.6672C217.99 55.9293 217.465 53.1913 216.858 50.4534C216.504 48.8244 216.231 47.168 215.979 45.5115C215.984 45.1738 215.868 44.8454 215.653 44.5856C215.438 44.3259 215.138 44.1517 214.807 44.0947C214.519 43.9836 214.258 43.8118 214.041 43.5911C213.825 43.3703 213.658 43.1056 213.552 42.8147C213.068 41.3499 212.939 39.7551 212.373 38.3245C211.637 36.4901 212.148 34.7789 212.557 33.0609C213.467 29.5463 214.998 26.2242 217.076 23.2523C219.626 19.4193 222.175 15.5725 225.597 12.4239C225.791 12.2296 225.942 11.9963 226.04 11.7394C226.367 10.9591 226.619 10.1514 226.974 9.39168C227.192 9.06386 227.329 8.68867 227.374 8.2971C227.419 7.90554 227.371 7.50883 227.233 7.13975C226.626 5.55176 228.248 1.42437 229.659 0.411341C229.856 0.249826 230.091 0.141449 230.341 0.0964806C232.386 -0.0677939 234.363 -0.170465 236.155 1.08213C236.479 1.2657 236.848 1.35128 237.219 1.32854C238.003 1.32854 238.5 1.65024 238.534 2.4237C238.59 3.52786 238.574 4.63449 238.487 5.73657C238.393 6.14415 238.15 6.50115 237.805 6.73591C237.626 6.82924 237.472 6.96362 237.354 7.12813C237.237 7.29265 237.16 7.48265 237.129 7.68271C237.099 7.88278 237.116 8.08725 237.178 8.27954C237.241 8.47182 237.349 8.64648 237.491 8.78934C238.173 9.72023 238.452 10.5348 237.103 11.1576C236.809 11.3901 236.612 11.7245 236.551 12.0954C236.21 13.4643 235.378 14.7238 236.551 16.1406C236.817 16.4486 236.551 17.578 236.162 18.0024C235.752 18.4341 235.493 18.9888 235.425 19.5819C235.357 20.175 235.485 20.7741 235.787 21.2879C236.487 22.809 237.274 24.2878 238.146 25.7164C239.277 27.5645 240.481 29.367 241.758 31.1238C242.183 31.65 242.752 32.0402 243.394 32.2464C243.893 32.3616 244.349 32.6153 244.71 32.9784C245.072 33.3415 245.324 33.7994 245.439 34.2998C245.651 35.3607 244.908 35.8672 244.076 36.2916C243.882 36.445 243.745 36.6596 243.687 36.9008C243.393 37.6883 243.138 38.4901 242.924 39.3033C242.864 39.6239 242.917 39.9553 243.074 40.241C245.548 44.6149 248.023 48.9887 250.572 53.3351C250.855 53.7703 251.279 54.0943 251.772 54.2523C256.543 55.9361 261.396 57.5788 266.209 59.2284C269.951 60.5084 273.707 61.7884 277.435 63.041C277.963 63.2424 278.528 63.3288 279.091 63.2942C283.583 62.774 288.062 61.9937 292.567 61.7199C295.976 61.5146 298.743 59.735 301.756 58.5645C302.117 58.4208 302.499 58.3455 303.058 58.188C302.908 58.7219 302.819 59.0231 302.676 59.557L338.455 60.043L337.092 57.3051C337.073 57.2722 337.057 57.2379 337.044 57.2024C336.751 56.2852 336.362 55.2243 337.214 54.5535C338.066 53.8827 338.85 54.8341 339.511 55.2927C340.963 56.2852 342.354 57.3461 344.174 57.5446C345.537 57.7089 345.612 57.6268 345.244 56.3468C344.928 55.1056 344.976 53.7992 345.383 52.5848C345.789 51.3705 346.536 50.2999 347.534 49.502C347.78 49.3228 348.046 49.1713 348.325 49.0503C349.32 48.5985 349.688 48.7833 349.688 49.8922C349.726 51.9209 350.208 53.9165 351.099 55.7376C351.218 56.0756 351.453 56.3601 351.761 56.5407C352.069 56.7212 352.431 56.7859 352.783 56.7233C355.291 56.6206 357.8 56.6206 360.281 56.6616C362.598 56.7027 364.943 57.0929 367.227 56.867C369.866 56.6786 372.368 55.6115 374.336 53.8348C375.549 52.6985 376.797 51.5828 378.092 50.5424C378.565 50.3171 379.076 50.1802 379.598 50.1386C379.707 50.9531 379.087 51.9798 380.246 52.1167C380.614 52.1578 381.057 51.6034 381.357 51.3912C383.061 51.9114 384.806 52.4384 386.544 52.986C386.844 53.0532 387.121 53.197 387.348 53.4035C388.313 54.4534 389.644 55.0886 391.063 55.1763C391.254 55.1763 391.561 55.9635 391.506 56.0046C391.055 56.4617 390.508 56.8124 389.905 57.0313C389.076 57.1069 388.242 57.0931 387.417 56.9902L387.328 57.5446L390.314 58.277L390.245 58.8725C389.469 58.9271 388.69 58.9271 387.914 58.8725C385.617 58.5713 385.556 58.5919 385.542 61.1381L395.818 60.7754L406.093 60.4126C405.623 59.504 405.24 58.553 404.948 57.572C404.885 56.7738 404.926 55.9706 405.071 55.1832C405.855 55.3425 406.624 55.5716 407.368 55.8677C408.629 56.4768 409.754 57.4009 411.049 57.8663C412.165 58.2075 413.334 58.3374 414.498 58.2496C415.547 58.1084 416.587 57.9073 417.613 57.6473C418.404 57.5172 418.581 57.1134 418.492 56.381C418.204 54.5916 418.603 52.759 419.61 51.2543C419.979 50.7351 420.442 50.2894 420.973 49.9401C421.934 49.3309 422.234 49.591 422.425 50.7204C422.739 52.5479 423.175 54.355 423.564 56.1962C423.714 56.9286 424.211 57.1476 424.927 57.1682C427.653 57.2708 430.325 57.394 433.031 57.4967C434.857 57.6291 436.69 57.3671 438.407 56.7284C440.124 56.0896 441.684 55.0889 442.983 53.7937C443.925 52.8638 444.927 51.9972 445.982 51.1995C446.316 50.9463 446.889 50.9942 447.578 50.8641C446.991 52.7259 448.361 52.9176 449.438 53.253C450.638 53.6226 449.841 51.973 450.604 52.1236C451.838 52.5274 453.085 52.8833 454.285 53.3488C454.925 53.6616 455.546 54.0113 456.146 54.396C456.93 54.8204 457.741 55.1832 458.511 55.6212C458.873 55.8628 459.214 56.1329 459.533 56.4289C459.186 56.8122 458.899 57.4146 458.477 57.5446C457.731 57.6828 456.972 57.7447 456.214 57.7294C456.091 57.7294 455.975 57.8663 455.812 58.2565L458.497 58.941C458.102 59.954 457.393 59.8445 456.664 59.7007C456.2 59.5416 455.715 59.4562 455.225 59.4475C454.912 59.4475 454.639 59.8924 454.346 60.1319C454.626 60.3168 454.905 60.6453 455.191 60.659C457.359 60.7548 459.527 60.8027 461.694 60.8506C465.539 60.9328 469.383 61.0012 473.227 61.0765C473.555 61.0765 473.909 61.0218 474.338 60.9807C473.957 60.1867 473.657 59.5228 473.323 58.8588C473.183 58.6276 473.097 58.368 473.071 58.099C473.071 57.3051 472.907 56.2373 473.343 55.7855C473.984 55.101 474.822 55.8677 475.422 56.3673C476.644 57.4745 478.131 58.2454 479.737 58.6052C481.344 58.965 483.015 58.9015 484.59 58.4208C485.735 58.1394 486.903 57.9675 488.08 57.9074C488.762 57.8526 488.878 57.572 488.925 56.9765C489.021 55.7376 488.959 54.396 489.43 53.3009C489.981 52.1972 490.779 51.2367 491.761 50.4945C492.661 49.769 493.124 50.0907 493.124 51.268C493.077 53.2163 493.515 55.1456 494.399 56.8807C494.514 57.1015 494.676 57.2946 494.872 57.447C495.068 57.5994 495.295 57.7074 495.537 57.7637C498.45 57.945 501.37 57.945 504.283 57.7637C506.622 57.5799 508.816 56.5513 510.458 54.8683C511.608 53.7207 512.838 52.657 514.139 51.6855C514.5 51.4117 515.127 51.4802 515.857 51.3569C515.107 53.1913 516.416 53.3214 517.465 53.7252C517.979 53.9634 518.467 54.2523 518.924 54.5877C519.319 54.8272 519.878 55.3885 520.069 55.2722C520.908 54.793 522.319 54.8889 522.25 53.3419C522.306 53.0207 522.419 52.7122 522.584 52.4316C522.857 52.589 523.123 52.7533 523.409 52.8833C523.929 53.1736 524.48 53.4032 525.052 53.5678C526.489 53.7491 527.837 54.365 528.917 55.3338C529.462 55.8745 530.43 55.9566 531.18 56.3057C531.507 56.4563 532.039 56.8396 531.998 56.9902C531.882 57.4077 531.589 57.9895 531.241 58.0854C530.428 58.2509 529.603 58.3471 528.774 58.3728C528.569 58.4099 528.368 58.4672 528.174 58.544L528.133 58.8999C528.746 59.0231 529.374 59.1189 529.98 59.2763C530.299 59.3871 530.607 59.5268 530.9 59.6939C530.594 59.9198 530.3 60.3168 529.987 60.3236C529.267 60.3183 528.55 60.238 527.847 60.084C527.001 59.9471 526.586 60.2072 526.483 61.1244C526.468 61.7564 526.226 62.3615 525.802 62.8288C524.302 63.9034 523.975 65.5667 523.334 67.1068C523.243 67.4738 523.118 67.8314 522.959 68.1745C522.155 69.3861 522.441 70.4128 523.43 71.33C524.929 72.6989 526.429 74.1226 527.997 75.4368C528.547 75.7526 529.132 76.0008 529.742 76.1761C530.041 76.3422 530.324 76.5371 530.587 76.7579C530.348 77.0385 530.137 77.5176 529.871 77.5519C529.128 77.6409 528.201 77.8257 527.635 77.4903C524.861 75.8065 522.182 73.9721 519.456 72.165C519.129 71.9392 518.951 71.4806 518.685 71.1931C518.42 70.9056 518.004 70.1185 517.724 70.1664C517.109 70.2856 516.552 70.6143 516.15 71.0973C515.714 71.6996 515.134 72.6921 515.359 73.1507C516.041 74.5881 516.913 75.9571 518.542 76.5731C518.901 76.7624 519.237 76.992 519.544 77.2576C519.101 77.5108 518.651 77.942 518.181 77.942C517.538 77.9252 516.915 77.7128 516.395 77.3328C515.568 76.6314 514.783 75.8818 514.044 75.0878C513.007 76.2172 511.999 77.4081 510.922 78.4691C508.434 80.8648 505.755 80.2829 503.771 77.8736C503.184 77.0752 502.647 76.2408 502.163 75.3752C500.922 76.1487 499.559 76.9975 498.202 77.8531C497.984 77.9831 497.65 78.1131 497.603 78.3048C497.493 78.7497 497.739 79.441 496.962 79.3657C496.124 79.3743 495.295 79.1868 494.542 78.8182C493.542 78.0149 492.584 77.1605 491.672 76.2582C491.514 76.1843 491.339 76.1525 491.165 76.1657C490.991 76.1788 490.823 76.2366 490.677 76.3335C489.764 77.1343 488.953 78.0584 488.039 78.8592C487.767 79.0988 487.276 79.0783 486.887 79.1741C486.928 78.7292 486.819 78.1816 487.03 77.8462C488.121 76.1624 489.307 74.547 490.439 72.8769C490.562 72.6168 490.593 72.3222 490.527 72.0418C490.456 71.7445 490.348 71.4571 490.207 71.1862C489.471 69.5367 489.525 69.5846 487.801 70.3443C486.589 70.8869 485.341 71.3443 484.065 71.7133C482.336 72.2684 480.816 73.3407 479.71 74.7866C478.769 75.8818 477.862 76.9838 476.363 77.3328C475.824 75.9639 475.995 75.4232 477.079 74.7387C477.379 74.5157 477.641 74.2452 477.856 73.9378C478.715 72.8769 479.56 71.8023 480.412 70.7345C480.505 70.6107 480.633 70.5178 480.78 70.4676C482.825 70.0979 483.057 68.6058 483.077 66.874C483.166 65.7437 483.332 64.6208 483.575 63.5133C483.085 63.4615 482.592 63.4615 482.102 63.5133C479.982 63.9992 478.149 63.3695 476.349 62.2949C475.643 61.8777 474.844 61.6425 474.025 61.6104C468.006 61.4872 461.994 61.5009 455.982 61.3366C454.046 61.2887 452.996 62.3565 452.26 63.7939C451.539 65.3016 450.946 66.8678 450.488 68.4757C450.429 68.7456 450.429 69.0251 450.489 69.2948C450.549 69.5644 450.668 69.8176 450.836 70.0363C452.492 71.7544 454.196 73.4587 455.989 74.9988C456.548 75.4711 457.434 75.5943 458.252 75.9023ZM227.914 33.499C227.977 35.1499 228.573 36.7355 229.612 38.0165C231.725 40.6586 233.899 43.2596 236.026 45.8948C237.457 47.6676 237.519 48.9134 236.333 50.912C235.903 51.5965 235.419 52.3221 235.031 53.0545C234.874 53.3488 234.724 53.869 234.874 54.0606C235.971 55.5186 235.242 56.6822 234.424 57.9006C232.829 60.262 231.145 62.5687 229.741 65.0396C229.145 66.0564 228.943 67.2584 229.174 68.4154C229.406 69.5724 230.054 70.6029 230.995 71.3094C231.677 71.8433 232.093 72.6237 232.7 73.226C232.981 73.4951 233.343 73.6635 233.729 73.7051C236.926 73.9652 240.109 73.3013 243.353 74.0611C245.466 74.5539 247.818 74.0611 250.054 73.9036C250.228 73.8621 250.388 73.7778 250.522 73.6583C250.655 73.5388 250.757 73.3879 250.817 73.2191C250.885 71.5832 250.879 69.9336 250.817 68.2977C250.817 68.0376 250.367 67.7639 250.074 67.5654C249.811 67.4456 249.53 67.3671 249.243 67.3326C249.495 67.0931 249.611 66.8946 249.754 66.874C250.742 66.7372 250.879 66.1143 250.865 65.245C250.817 62.6919 250.865 60.1319 250.865 57.572C250.884 57.1195 250.795 56.6689 250.606 56.2578C247.743 51.1037 244.935 45.9085 241.902 40.8502C241.511 40.1544 240.977 39.5504 240.335 39.0782C239.693 38.6061 238.958 38.2768 238.18 38.1123C236.668 37.804 235.185 37.3643 233.749 36.7981C232.852 36.3816 231.989 35.8964 231.166 35.347L227.914 33.499ZM295.485 62.5208L272.064 73.0959C285.008 75.8475 292.588 70.8166 295.471 62.5208H295.485ZM252.508 55.9977L252.331 56.2647C252.395 56.4325 252.468 56.597 252.549 56.7575C254.069 59.4338 255.63 62.0896 257.102 64.7932C257.23 65.1066 257.465 65.3643 257.764 65.5209C258.064 65.6774 258.409 65.7228 258.738 65.6488C260.742 65.4229 262.746 65.245 264.743 65.0054C266.209 64.8343 267.667 64.6016 269.133 64.4031C269.774 64.3209 269.951 63.9582 270.019 63.3216C270.148 62.1306 269.712 61.5351 268.567 61.1792C264.477 59.8992 260.428 58.5303 256.366 57.2024C255.071 56.7849 253.776 56.3947 252.494 55.9977H252.508ZM258.438 66.655C258.438 66.9014 258.438 67.0315 258.438 67.1136C259.597 69.167 260.749 71.2205 261.955 73.2739C262.052 73.4075 262.177 73.5187 262.32 73.6001C262.464 73.6816 262.623 73.7314 262.787 73.7462C264.764 73.7462 266.74 73.6709 268.71 73.5408C268.902 73.5463 269.092 73.5085 269.267 73.4303C269.442 73.3521 269.597 73.2355 269.722 73.0891C269.846 72.9426 269.936 72.7701 269.985 72.5841C270.034 72.3981 270.041 72.2035 270.005 72.0145C269.944 70.1116 269.958 68.2088 269.971 66.3059C269.971 65.5735 269.719 65.2655 268.956 65.3545C265.977 65.6899 262.998 65.9842 260.026 66.3265C259.487 66.4066 258.952 66.5163 258.424 66.655H258.438ZM283.897 66.7029V66.2854C281.382 65.6009 279.078 64.1156 276.304 64.4099C275.097 64.54 273.897 64.7111 272.691 64.8411C272.009 64.9164 271.593 65.2381 271.6 66.0116C271.6 67.7296 271.6 69.434 271.6 71.1589C271.6 71.9392 271.88 72.1993 272.657 71.8433C274.702 70.8782 276.706 69.9542 278.744 69.0301C280.441 68.2293 282.159 67.4695 283.883 66.7029H283.897ZM504.964 74.636C504.869 76.8195 506.505 78.7908 508.318 79.0098C508.536 79.0098 508.904 78.9551 508.999 78.8113C509.92 77.1138 511.535 75.7586 511.637 73.6709C511.65 73.138 511.482 72.6166 511.16 72.1924C510.524 71.4351 509.827 70.7322 509.074 70.0911C508.813 69.8556 508.471 69.7306 508.12 69.742C506.293 69.9268 506.3 69.9542 505.912 71.8297C505.844 72.0859 505.76 72.3374 505.659 72.5826L504.964 74.636ZM438.232 69.4134C435.997 69.5024 435.99 69.4956 435.063 71.5216C434.721 72.2416 434.418 72.9796 434.156 73.7325C433.981 74.208 433.911 74.7164 433.953 75.2217C433.995 75.727 434.146 76.217 434.397 76.657C434.648 77.097 434.992 77.4764 435.405 77.7682C435.818 78.06 436.29 78.2572 436.787 78.3459C437.033 78.4006 437.469 78.3459 437.558 78.1816C438.239 76.6347 439.684 75.519 439.923 73.7393C440 73.1751 440.125 72.6186 440.298 72.0761C441.082 69.4751 440.959 69.3108 438.219 69.4134H438.232ZM256.195 73.9105V73.8489C257.218 73.8489 258.24 73.8489 259.263 73.8489C260.101 73.8489 260.285 73.5203 259.869 72.7948C259.242 71.7064 258.656 70.6044 258.036 69.5161C256.482 66.7782 256.475 66.7782 253.353 67.1136C253.278 67.1136 253.169 67.1136 253.135 67.1136C252.835 67.4285 252.324 67.7365 252.303 68.0719C252.221 69.7009 252.303 71.3368 252.256 72.9727C252.256 73.6572 252.59 73.8968 253.237 73.8831C254.205 73.8899 255.18 73.9105 256.182 73.9105H256.195ZM224.281 45.7374L224.002 45.9907C224.002 48.0441 223.777 50.2002 224.056 52.2536C224.375 54.3377 223.914 56.4665 222.761 58.2291C221.739 59.8787 221.8 59.9129 223.198 61.234C223.245 61.275 223.341 61.234 223.579 61.275C223.975 59.9061 224.459 58.5029 224.765 57.0792C225.179 55.2883 226.07 53.644 227.342 52.3221C227.454 52.2023 227.591 52.1079 227.743 52.0453C227.894 51.9828 228.057 51.9535 228.221 51.9593C228.366 52.0043 228.52 52.0176 228.67 51.9981C228.821 51.9787 228.966 51.927 229.095 51.8466C229.224 51.7661 229.335 51.6588 229.419 51.5318C229.504 51.4049 229.56 51.2612 229.584 51.1105C229.707 50.5356 229.762 49.5842 229.434 49.3309C227.812 48.0372 226.026 46.9147 224.281 45.7374ZM424.975 73.2191C425.064 73.9737 425.338 74.6943 425.772 75.3165C426.206 75.9388 426.787 76.4434 427.463 76.7853C428.049 77.1412 428.362 77.0385 428.662 76.354C428.893 75.834 429.309 75.419 429.828 75.1904C431.116 74.7524 431.62 73.9105 431.027 72.6716C430.612 71.8643 430.157 71.0785 429.664 70.317C429.371 69.831 429.058 69.7488 428.56 70.1321C427.633 70.8508 426.617 71.46 425.704 72.1856C425.406 72.4878 425.16 72.837 424.975 73.2191ZM500.363 72.3909C500.38 72.1243 500.38 71.8568 500.363 71.5901C500.315 71.241 500.22 70.9056 500.152 70.5497C499.825 70.7071 499.47 70.8372 499.177 71.022C497.718 71.9049 496.301 72.8632 494.801 73.6777C493.111 74.5949 492.995 74.9919 494.372 76.4156C494.704 76.7254 495.068 77.0006 495.455 77.237C496.137 77.7162 496.601 77.6682 496.887 76.751C496.958 76.5301 497.075 76.3268 497.23 76.1545C497.385 75.9822 497.575 75.845 497.787 75.7517C499.702 75.2041 500.363 74.4033 500.363 72.3909ZM281.259 63.9103L281.177 64.4373C282.725 64.8617 284.36 65.8063 285.792 65.5735C287.837 65.2176 289.739 63.9856 291.702 63.1231L291.552 62.7193L281.259 63.9103ZM239.543 34.7584L239.877 34.2245L232.529 26.353C231.554 27.722 231.473 27.9958 232.461 28.8787C234.097 30.3504 235.869 31.6646 237.56 33.0746C237.941 33.3894 238.2 33.8549 238.575 34.1903C238.877 34.414 239.201 34.6044 239.543 34.7584ZM252.596 59.8992L252.242 60.0498V65.0739C252.242 65.2587 252.181 65.4914 252.242 65.6351C252.412 65.9158 252.678 66.3881 252.869 66.3744C253.83 66.2991 254.778 66.1006 255.93 65.9089C254.778 63.835 253.687 61.85 252.596 59.8992ZM357.943 69.8652C356.225 71.9186 357.377 75.6901 359.77 76.2924C359.954 76.3404 360.328 76.2924 360.356 76.1898C360.41 75.9639 360.417 75.5874 360.281 75.4711C359.517 74.8414 359.647 74.02 359.654 73.1781C359.667 71.7886 358.788 70.8577 357.943 69.8652ZM362.448 74.0747C363.491 73.5751 364.187 73.1439 364.207 72.0213C364.227 70.8988 364.425 69.9063 364.5 68.8453C364.464 68.5848 364.383 68.3325 364.262 68.0993C364.023 68.2909 363.641 68.4347 363.58 68.6742C363.164 70.0911 362.81 71.5216 362.469 72.9522C362.425 73.334 362.419 73.719 362.448 74.1021V74.0747ZM221.705 71.1726L221.364 71.5627C221.732 72.1082 222.162 72.6089 222.645 73.0549C223.184 73.4519 223.954 73.5203 224.486 73.9105C225.27 74.4854 225.74 74.1706 226.36 73.5819L221.705 71.1726ZM274.736 63.7391L274.845 63.3011C274.062 63.0003 273.264 62.7443 272.452 62.5345C272.28 62.5302 272.11 62.5709 271.958 62.6525C271.807 62.7341 271.679 62.8538 271.587 62.9999C271.43 63.4996 271.587 64.0403 272.268 64.0061C273.107 63.9582 273.918 63.835 274.736 63.7391Z" fill="#8499AD"/>
</svg>
